<?xml version="1.0" encoding="utf-8"?>
<svg version="1.0" id="Layer_1" xmlns="http://www.w3.org/2000/svg" xmlns:xlink="http://www.w3.org/1999/xlink" x="0px" y="0px"
	 viewBox="0 0 150.236 141.732" enable-background="new 0 0 150.236 141.732" xml:space="preserve">
<g>
	<path fill="#0A7EC2" d="M149.42,0H8.321v141.599h141.065V94.911c0.598-0.92,0.89-2.006,0.834-3.101
		c0.09-1.089-0.205-2.174-0.834-3.068L149.42,0z"/>
	<path fill="#FFFFFF" d="M21.061,61.295l-2.701-6.67l-2.701,6.67H21.061z M80.855,58.694c-0.618,0.273-1.294,0.387-1.968,0.333
		h-4.836v-3.735h4.902c0.637-0.044,1.276,0.058,1.868,0.3c0.546,0.279,0.874,0.856,0.834,1.467c0.036,0.646-0.284,1.26-0.834,1.601
		 M115.238,61.295l-2.768-6.67l-2.701,6.67H115.238z M51.141,68.432h-4.069V55.459l-5.736,12.973h-3.335l-5.803-13.006v13.006
		h-8.204l-1.534-3.702h-8.237l-1.534,3.702H8.522l7.103-16.674h5.903l6.67,15.707V51.857h6.47l5.202,11.272l4.769-11.272h6.67
		L51.141,68.432z M67.349,68.432h-13.34V51.757h13.34v3.335h-9.271v3.001h9.038v3.335h-9.038v3.335h9.271V68.432z M86.057,56.326
		c0.077,1.942-1.05,3.732-2.835,4.502c0.771,0.279,1.452,0.763,1.968,1.401c0.552,0.91,0.787,1.977,0.667,3.035v3.335h-3.969v-2.101
		c0.196-1.152-0.029-2.335-0.634-3.335c-0.567-0.6-1.467-0.7-2.901-0.7h-4.302v6.036h-3.969V51.824h9.104
		c1.643-0.161,3.3,0.115,4.802,0.8c1.346,0.711,2.144,2.15,2.034,3.668 M92.36,68.398h-4.069V51.724h4.069V68.398z M139.282,68.398
		h-5.603l-7.537-12.439v12.439h-8.07l-1.534-3.702h-8.237l-1.467,3.702h-4.669c-3.83,0.54-7.372-2.128-7.912-5.958
		c-0.104-0.735-0.09-1.482,0.041-2.213c-0.186-2.356,0.584-4.687,2.134-6.47c1.664-1.441,3.845-2.14,6.036-1.934h3.835v3.535h-3.735
		c-1.12-0.129-2.24,0.236-3.068,1c-0.824,1.076-1.227,2.416-1.134,3.768c-0.164,1.436,0.23,2.881,1.101,4.035
		c0.762,0.638,1.744,0.95,2.735,0.867h1.767l5.603-13.039h5.936l6.67,15.674V51.991h6.036l7.037,11.405V51.857h4.069L139.282,68.398
		z M8.321,71.733h6.67l1.534-3.702h3.335l1.534,3.702h13.34v-2.835l1.201,2.835h6.903l1.167-2.868v2.868h33.149V65.63h0.634
		c0.434,0,0.567,0,0.567,0.8v5.236h17.141v-1.401c1.965,0.981,4.141,1.462,6.336,1.401h7.403l1.534-3.702h3.335l1.501,3.702h13.873
		v-3.468l2.101,3.502h11.105V48.556h-10.772v2.735l-1.534-2.735h-11.405v2.735l-1.401-2.735h-15.274
		c-2.3-0.123-4.594,0.336-6.67,1.334v-1.334H85.224v1.334c-1.281-0.968-2.867-1.442-4.469-1.334H42.17l-2.601,5.969l-2.635-5.969
		H24.829v2.735l-1.367-2.735H13.124L8.321,59.528V71.733z"/>
	<path fill="#FFFFFF" d="M149.42,83.939h-7.27c-0.552-0.065-1.11,0.04-1.601,0.3c-0.402,0.263-0.631,0.722-0.6,1.201
		c-0.003,0.554,0.345,1.049,0.867,1.234c0.499,0.14,1.016,0.208,1.534,0.2h2.168c1.616-0.148,3.228,0.329,4.502,1.334
		c0.137,0.132,0.26,0.277,0.367,0.434L149.42,83.939z M149.42,94.877c-1.336,1.563-3.359,2.362-5.402,2.134h-7.67V93.41h7.637
		c0.565,0.072,1.136-0.071,1.601-0.4c0.317-0.278,0.499-0.679,0.5-1.101c0.013-0.425-0.172-0.831-0.5-1.101
		c-0.404-0.267-0.884-0.396-1.367-0.367c-3.735,0-8.371,0-8.371-5.136c-0.03-2.726,2.155-4.96,4.88-4.99
		c0.264-0.003,0.528,0.015,0.789,0.055h7.904v-3.335h-7.503c-1.76-0.09-3.503,0.39-4.969,1.367v-1.367h-10.705
		c-1.687-0.09-3.356,0.391-4.736,1.367v-1.367h-19.376v1.367c-1.622-0.93-3.466-1.402-5.336-1.367H83.99v1.367
		c-1.631-0.993-3.532-1.448-5.436-1.301H64.081l-3.335,3.535l-3.068-3.535h-21.31v23.144h20.976l3.335-3.602l3.335,3.602h12.939
		v-5.436h1.267c1.825,0.146,3.661-0.069,5.402-0.634v6.236h10.672v-6.236h0.534c0.667,0,0.734,0,0.734,0.667v5.369h32.348
		c1.912,0.065,3.798-0.459,5.403-1.501v1.501h10.271c2,0.069,3.99-0.295,5.836-1.067V94.877z M133.579,88.208
		c0.833,0.905,1.265,2.107,1.201,3.335c0,3.568-2.234,5.236-6.203,5.236h-7.77V93.41h7.77c0.575,0.068,1.155-0.074,1.634-0.4
		c0.298-0.289,0.466-0.686,0.467-1.101c0.004-0.423-0.179-0.825-0.5-1.101c-0.416-0.268-0.907-0.396-1.401-0.367
		c-3.702,0-8.337,0-8.337-5.136c0-2.401,1.501-4.936,5.669-4.936h7.937v3.535h-7.337c-0.504-0.049-1.012,0.044-1.467,0.267
		c-0.413,0.253-0.646,0.719-0.6,1.201c-0.014,0.557,0.338,1.058,0.867,1.234c0.499,0.143,1.016,0.21,1.534,0.2h2.168
		c1.615-0.142,3.224,0.335,4.502,1.334 M97.93,87.107c-0.614,0.286-1.294,0.401-1.968,0.333h-4.936v-3.602h4.869
		c0.649-0.059,1.302,0.044,1.901,0.3c0.552,0.29,0.879,0.879,0.834,1.501c0.036,0.646-0.284,1.26-0.834,1.601 M100.197,89.308
		c0.761,0.281,1.43,0.766,1.934,1.401c0.557,0.908,0.792,1.977,0.667,3.035v3.335H98.83v-2.068c0.193-1.152-0.032-2.334-0.634-3.335
		c-0.567-0.6-1.434-0.734-2.901-0.734h-4.269v6.069h-3.969V80.337h9.138c1.632-0.144,3.274,0.131,4.769,0.8
		c1.34,0.717,2.136,2.152,2.034,3.668c0.059,1.903-1.052,3.649-2.801,4.402 M105.233,80.404h13.34v3.335h-9.438v3.001h9.071v3.335
		h-9.071v3.335h9.438v3.335h-13.34V80.404z M78.554,88.074h-5.236v-4.235h5.236c1.434,0,2.434,0.567,2.434,2.034
		s-0.967,2.201-2.468,2.201 M69.416,95.511l-6.069-6.67l6.069-6.67V95.511z M53.709,93.543h-9.805v-3.335h8.704v-3.335h-8.704
		v-3.001h10.005l4.302,4.836L53.709,93.543z M85.224,85.84c0,4.602-3.335,5.569-6.903,5.569h-5.002v5.569h-7.704l-4.869-5.469
		l-5.069,5.503H39.969V80.337H55.91l4.902,5.436l5.036-5.436h12.706c3.168,0,6.67,0.867,6.67,5.469"/>
	<path fill="#0A7EC2" d="M6.12,138.397c0,1.51-1.224,2.735-2.735,2.735s-2.735-1.224-2.735-2.735c0-1.51,1.224-2.735,2.735-2.735
		c0,0,0,0,0,0c1.492-0.019,2.716,1.176,2.735,2.667C6.121,138.353,6.121,138.375,6.12,138.397 M6.621,138.397
		c0-1.842-1.493-3.335-3.335-3.335s-3.335,1.493-3.335,3.335c0,1.842,1.493,3.335,3.335,3.335S6.621,140.239,6.621,138.397
		 M4.153,137.73c0-0.367-0.267-0.4-0.434-0.4h-0.9v0.834h0.834c0.3,0,0.534,0,0.534-0.434 M4.82,139.865H4.253
		c-0.034-0.255-0.034-0.512,0-0.767c0-0.233,0-0.434-0.434-0.434H2.952v1.234H2.419v-3.001h1.401c0.467,0,1,0.167,1,0.834
		c0.012,0.265-0.114,0.517-0.333,0.667c0.177,0.118,0.279,0.321,0.267,0.534v0.534c-0.042,0.072-0.042,0.161,0,0.233L4.82,139.865z"
		/>
</g>
</svg>
