<?xml version="1.0" encoding="utf-8"?>
<!-- Generator: Adobe Illustrator 21.1.0, SVG Export Plug-In . SVG Version: 6.00 Build 0)  -->
<svg version="1.0" id="Layer_1" xmlns="http://www.w3.org/2000/svg" xmlns:xlink="http://www.w3.org/1999/xlink" x="0px" y="0px"
	 viewBox="0 0 311.811 141.732" enable-background="new 0 0 311.811 141.732" xml:space="preserve">
<g>
	<circle fill="#FFFFFF" cx="41.834" cy="73.11" r="40.095"/>
	<g>
		<g>
			<path d="M109.403,48.734c0-3.929-2.053-3.67-4.016-3.714v-1.13c1.701,0.081,3.448,0.081,5.153,0.081
				c1.834,0,4.324-0.081,7.558-0.081c11.31,0,17.47,7.55,17.47,15.287c0,4.326-2.532,15.201-17.994,15.201
				c-2.224,0-4.283-0.085-6.333-0.085c-1.967,0-3.891,0.045-5.854,0.085V73.24c2.616-0.263,3.887-0.348,4.016-3.317
				C109.403,69.923,109.403,48.734,109.403,48.734z M113.683,69.221c0,3.366,2.406,3.755,4.544,3.755
				c9.439,0,12.535-7.117,12.535-13.626c0-8.166-5.24-14.063-13.672-14.063c-1.791,0-2.618,0.125-3.408,0.174L113.683,69.221
				L113.683,69.221z"/>
			<path d="M137.101,73.239h0.828c1.224,0,2.096,0,2.096-1.446V59.962c0-1.924-0.652-2.187-2.272-3.054v-0.701
				c2.056-0.616,4.5-1.438,4.676-1.576c0.308-0.17,0.565-0.215,0.788-0.215c0.215,0,0.304,0.259,0.304,0.608v16.769
				c0,1.446,0.964,1.446,2.183,1.446h0.741v1.138c-1.485,0-3.014-0.085-4.584-0.085c-1.573,0-3.144,0.045-4.76,0.085L137.101,73.239
				L137.101,73.239z M141.777,47.689c-1.14,0-2.144-1.049-2.144-2.183c0-1.094,1.048-2.102,2.144-2.102
				c1.132,0,2.141,0.919,2.141,2.102C143.918,46.684,142.954,47.689,141.777,47.689z"/>
			<path d="M150.597,60.221c0-1.612-0.48-2.05-2.532-2.876v-0.834c1.875-0.612,3.666-1.183,5.764-2.094
				c0.132,0,0.259,0.085,0.259,0.429v2.847c2.495-1.794,4.636-3.277,7.562-3.277c3.714,0,5.023,2.706,5.023,6.112v11.264
				c0,1.446,0.964,1.446,2.183,1.446h0.788v1.138c-1.533,0-3.06-0.085-4.628-0.085c-1.576,0-3.147,0.045-4.721,0.085v-1.138h0.788
				c1.223,0,2.092,0,2.092-1.446V60.489c0-2.495-1.525-3.714-4.016-3.714c-1.399,0-3.623,1.134-5.071,2.098v12.921
				c0,1.446,0.968,1.446,2.191,1.446h0.786v1.138c-1.529,0-3.062-0.085-4.638-0.085c-1.567,0-3.143,0.045-4.715,0.085V73.24h0.792
				c1.221,0,2.092,0,2.092-1.446V60.221H150.597z"/>
			<path d="M172.968,62.323c-0.093,0.393-0.093,1.045,0,2.532c0.255,4.152,2.925,7.558,6.416,7.558c2.404,0,4.288-1.312,5.9-2.928
				l0.612,0.612c-2.011,2.665-4.498,4.936-8.079,4.936c-6.949,0-8.344-6.726-8.344-9.521c0-8.563,5.764-11.094,8.818-11.094
				c3.54,0,7.346,2.224,7.384,6.853c0,0.267,0,0.527-0.039,0.79l-0.399,0.263L172.968,62.323L172.968,62.323z M180.7,60.922
				c1.088,0,1.215-0.567,1.215-1.089c0-2.232-1.353-4.022-3.799-4.022c-2.661,0-4.496,1.965-5.021,5.112L180.7,60.922L180.7,60.922z
				"/>
			<path d="M186.679,73.239h1.185c1.221,0,2.088,0,2.088-1.446V59.524c0-1.353-1.612-1.616-2.268-1.969v-0.648
				c3.188-1.357,4.94-2.491,5.335-2.491c0.257,0,0.389,0.126,0.389,0.567v3.929h0.093c1.088-1.701,2.925-4.496,5.588-4.496
				c1.091,0,2.487,0.737,2.487,2.313c0,1.179-0.824,2.232-2.052,2.232c-1.357,0-1.357-1.053-2.884-1.053
				c-0.741,0-3.188,1.005-3.188,3.629v10.256c0,1.446,0.871,1.446,2.096,1.446h2.444v1.138c-2.402-0.04-4.233-0.085-6.112-0.085
				c-1.792,0-3.625,0.045-5.201,0.085L186.679,73.239L186.679,73.239z"/>
			<path d="M203.495,68.306c0.573,2.88,2.319,5.33,5.509,5.33c2.574,0,3.53-1.576,3.53-3.103c0-5.152-9.515-3.5-9.515-10.527
				c0-2.45,1.969-5.59,6.772-5.59c1.395,0,3.273,0.393,4.976,1.264l0.308,4.455h-1.004c-0.436-2.75-1.967-4.326-4.763-4.326
				c-1.748,0-3.404,1.009-3.404,2.884c0,5.116,10.132,3.54,10.132,10.398c0,2.88-2.315,5.94-7.512,5.94
				c-1.754,0-3.803-0.61-5.333-1.481l-0.48-5.027L203.495,68.306z"/>
			<path d="M255.477,51.792h-1.092c-0.828-5.108-4.455-7.161-9.343-7.161c-5.029,0-12.326,3.362-12.326,13.841
				c0,8.83,6.301,15.165,13.02,15.165c4.324,0,7.909-2.969,8.783-7.558l1.001,0.259l-1.001,6.379
				c-1.835,1.138-6.776,2.315-9.66,2.315c-10.219,0-16.678-6.596-16.678-16.423c0-8.956,7.987-15.38,16.552-15.38
				c3.54,0,6.943,1.138,10.306,2.317L255.477,51.792z"/>
			<path d="M257.048,73.239h0.834c1.223,0,2.098,0,2.098-1.446V47.474c0-2.843-0.656-2.933-2.317-3.411v-0.701
				c1.746-0.567,3.581-1.349,4.5-1.88c0.478-0.259,0.83-0.482,0.96-0.482c0.265,0,0.348,0.263,0.348,0.616v30.176
				c0,1.446,0.964,1.446,2.187,1.446h0.741v1.138c-1.478,0-3.012-0.085-4.589-0.085c-1.568,0-3.139,0.045-4.763,0.085
				L257.048,73.239L257.048,73.239z"/>
			<path d="M285.1,71.972c0,0.79,0.476,0.83,1.221,0.83c0.523,0,1.183-0.041,1.75-0.041v0.92c-1.883,0.174-5.462,1.09-6.299,1.351
				l-0.215-0.13v-3.534c-2.617,2.139-4.634,3.664-7.737,3.664c-2.357,0-4.8-1.525-4.8-5.191V58.654c0-1.138-0.176-2.232-2.617-2.447
				v-0.83c1.576-0.049,5.059-0.304,5.632-0.304c0.484,0,0.484,0.304,0.484,1.264v11.269c0,1.308,0,5.067,3.8,5.067
				c1.48,0,3.447-1.138,5.28-2.657V58.257c0-0.871-2.096-1.349-3.664-1.79v-0.786c3.929-0.263,6.379-0.608,6.813-0.608
				c0.35,0,0.35,0.304,0.35,0.786v16.113H285.1z"/>
			<path d="M293.788,57.556c1.748-1.478,4.111-3.139,6.511-3.139c5.067,0,8.125,4.415,8.125,9.17
				c0,5.719-4.192,11.445-10.446,11.445c-3.23,0-4.929-1.047-6.068-1.525l-1.31,1l-0.913-0.478c0.385-2.576,0.606-5.116,0.606-7.777
				V47.474c0-2.843-0.652-2.933-2.313-3.411v-0.701c1.752-0.567,3.581-1.349,4.5-1.88c0.476-0.259,0.828-0.482,0.964-0.482
				c0.261,0,0.344,0.263,0.344,0.616L293.788,57.556L293.788,57.556z M293.788,69.44c0,1.661,1.572,4.455,4.504,4.455
				c4.676,0,6.641-4.589,6.641-8.478c0-4.715-3.585-8.644-6.989-8.644c-1.624,0-2.975,1.049-4.156,2.058L293.788,69.44
				L293.788,69.44z"/>
		</g>
		<g>
			<path d="M105.339,99.772h0.332c0.854,0,1.76-0.113,1.76-1.353V85.968c0-1.24-0.906-1.353-1.76-1.353h-0.332v-0.721
				c0.928,0,2.352,0.097,3.52,0.097c1.188,0,2.613-0.097,3.729-0.097v0.721h-0.332c-0.854,0-1.76,0.113-1.76,1.353v12.451
				c0,1.24,0.906,1.353,1.76,1.353h0.332v0.717c-1.14,0-2.568-0.093-3.754-0.093c-1.167,0-2.566,0.093-3.494,0.093L105.339,99.772
				L105.339,99.772z"/>
			<path d="M112.587,100.591c-1.148,0-2.572-0.093-3.754-0.093l0,0c-1.164,0-2.562,0.093-3.494,0.093l0,0h-0.105v-0.101v-0.713
				v-0.101h0.105h0.332c0.862-0.02,1.649-0.093,1.654-1.256l0,0V85.968c-0.005-1.163-0.792-1.24-1.654-1.256l0,0h-0.437v-0.097
				v-0.818h0.105c0.933,0,2.356,0.093,3.52,0.093l0,0c1.183,0,2.605-0.093,3.729-0.093l0,0h0.105v0.105v0.81h-0.105h-0.33
				c-0.864,0.016-1.654,0.093-1.658,1.256l0,0v12.451c0.004,1.162,0.794,1.235,1.658,1.256l0,0h0.436v0.101v0.814L112.587,100.591
				L112.587,100.591z M112.485,100.388l0.002-0.506h-0.23c-0.849,0-1.862-0.15-1.866-1.462l0,0V85.968
				c0.004-1.312,1.018-1.458,1.866-1.458l0,0h0.228v-0.506c-1.098,0-2.474,0.093-3.626,0.093l0,0c-1.128,0-2.495-0.089-3.415-0.093
				l0,0v0.506h0.228c0.847,0,1.86,0.146,1.86,1.458l0,0v12.451c0,1.312-1.014,1.462-1.86,1.462l0,0h-0.228v0.506
				c0.92-0.012,2.264-0.097,3.39-0.097l0,0C109.99,100.291,111.367,100.38,112.485,100.388L112.485,100.388z"/>
		</g>
		<g>
			<path d="M128.918,95.807l0.048-0.049v-8.911c0-1.948-1.356-2.232-2.072-2.232h-0.52v-0.721c1.116,0,2.213,0.097,3.328,0.097
				c0.972,0,1.951-0.097,2.92-0.097v0.721h-0.352c-1,0-2.12,0.186-2.12,3.014v10.819c0,0.83,0.028,1.661,0.144,2.398h-0.903
				l-12.238-13.642v9.79c0,2.074,0.4,2.779,2.231,2.779h0.404v0.717c-1.021,0-2.044-0.093-3.067-0.093
				c-1.062,0-2.16,0.093-3.228,0.093v-0.717h0.332c1.64,0,2.141-1.11,2.141-3.014V86.75c0-1.332-1.099-2.134-2.164-2.134h-0.309
				v-0.721c0.9,0,1.829,0.097,2.73,0.097c0.714,0,1.407-0.097,2.117-0.097L128.918,95.807z"/>
			<path d="M130.293,100.951l-0.979-0.036L117.25,87.471v9.523c0.03,2.07,0.344,2.657,2.132,2.681l0,0h0.511v0.097v0.818h-0.107
				c-1.028,0-2.052-0.093-3.067-0.093l0,0c-1.06,0-2.152,0.093-3.232,0.093l0,0h-0.103v-0.101v-0.814h0.103h0.336
				c1.573-0.012,2.02-1.021,2.04-2.916l0,0V86.75c-0.004-1.264-1.044-2.033-2.064-2.037l0,0h-0.416v-0.105v-0.81h0.103
				c0.91,0,1.837,0.093,2.734,0.093l0,0c0.706,0,1.394-0.093,2.197-0.057l0,0l10.443,11.755v-8.741
				c-0.012-1.892-1.272-2.118-1.968-2.135l0,0h-0.628v-0.105v-0.81h0.107c1.12,0,2.217,0.093,3.328,0.093l0,0
				c0.964,0,1.94-0.093,2.92-0.093l0,0h0.108v0.097v0.818h-0.108h-0.352c-0.984,0.028-1.988,0.118-2.016,2.916l0,0v10.819
				c0,0.826,0.024,1.657,0.14,2.382l0,0l0.02,0.122L130.293,100.951L130.293,100.951z M129.389,100.74h0.788
				c-0.108-0.713-0.124-1.507-0.124-2.292l0,0V87.629c0-2.852,1.192-3.119,2.217-3.119l0,0h0.252v-0.506
				c-0.941,0.004-1.876,0.093-2.82,0.093l0,0c-1.089,0-2.148-0.089-3.224-0.093l0,0v0.506h0.416c0.732,0,2.172,0.324,2.172,2.337
				l0,0l-0.028,8.984l-0.052,0.044l-0.08,0.077l-10.568-11.949c-0.707,0-1.395,0.093-2.117,0.093l0,0
				c-0.87,0-1.766-0.089-2.626-0.093l0,0l-0.004,0.506h0.209c1.116,0,2.263,0.85,2.263,2.24l0,0v10.009
				c0,1.904-0.53,3.115-2.24,3.123l0,0l-0.228-0.008v0.514c1.028-0.012,2.086-0.097,3.124-0.097l0,0
				c0.996,0,1.983,0.085,2.963,0.097l0,0v-0.506h-0.3c-1.871-0.008-2.335-0.818-2.335-2.888l0,0V86.936L129.389,100.74
				L129.389,100.74z M128.918,95.807l0.076-0.069L128.918,95.807L128.918,95.807z M128.861,95.758V95.75l-0.019-0.016
				L128.861,95.758L128.861,95.758z"/>
		</g>
		<g>
			<path d="M136.181,85.085c-1.784,0-1.848,0.429-2.208,2.163h-0.712c0.096-0.664,0.213-1.329,0.289-2.021
				c0.092-0.664,0.14-1.333,0.14-2.017h0.572c0.191,0.713,0.784,0.685,1.428,0.685h12.263c0.64,0,1.235-0.02,1.284-0.733
				l0.565,0.097c-0.087,0.636-0.184,1.28-0.257,1.924c-0.049,0.64-0.049,1.284-0.049,1.924l-0.711,0.267
				c-0.047-0.883-0.168-2.289-1.76-2.289h-3.897v12.646c0,1.835,0.834,2.041,1.972,2.041h0.45v0.717
				c-0.926,0-2.592-0.093-3.873-0.093c-1.424,0-3.092,0.093-4.02,0.093v-0.717h0.453c1.312,0,1.972-0.113,1.972-1.989V85.085
				H136.181z"/>
			<path d="M145.554,100.591c-0.938,0-2.6-0.093-3.877-0.093l0,0c-1.424,0-3.084,0.093-4.02,0.093l0,0h-0.099v-0.101v-0.814h0.099
				h0.453c1.312-0.033,1.84-0.049,1.867-1.892l0,0V85.186h-3.795v-0.101v-0.101h4.004v12.8c0,1.904-0.769,2.098-2.076,2.098l0,0
				h-0.348v0.502c0.94-0.008,2.536-0.093,3.916-0.093l0,0c1.24,0,2.828,0.085,3.768,0.093l0,0v-0.502H145.1
				c-1.15,0-2.08-0.28-2.08-2.151l0,0V84.984h4.004c1.596,0.004,1.804,1.357,1.855,2.24l0,0l0.518-0.19
				c0-0.616,0.004-1.24,0.043-1.867l0,0c0.067-0.608,0.156-1.215,0.245-1.823l0,0l-0.361-0.061
				c-0.117,0.689-0.782,0.729-1.377,0.721l0,0h-12.259c-0.047,0-0.088,0-0.124,0l0,0c-0.56,0-1.168-0.028-1.379-0.689l0,0h-0.396
				c0,0.656-0.049,1.292-0.141,1.928l0,0c-0.068,0.652-0.175,1.28-0.263,1.904l0,0h0.507c0.316-1.653,0.517-2.191,2.288-2.163l0,0
				v0.101v0.101c-1.756,0.037-1.716,0.328-2.108,2.086l0,0l-0.012,0.081h-0.088h-0.831l0.016-0.122
				c0.091-0.664,0.216-1.329,0.288-2.021l0,0c0.096-0.66,0.144-1.321,0.144-2.001l0,0v-0.105h0.1h0.652l0.016,0.077
				c0.164,0.6,0.599,0.604,1.207,0.616l0,0c0.04,0,0.077,0,0.124,0l0,0h12.259c0.66-0.012,1.144-0.024,1.185-0.644l0,0l0.008-0.109
				l0.107,0.02l0.668,0.105l-0.012,0.101c-0.093,0.64-0.186,1.28-0.255,1.916l0,0c-0.049,0.636-0.049,1.28-0.049,1.92l0,0v0.073
				l-0.069,0.028l-0.842,0.308l-0.004-0.142c-0.065-0.891-0.16-2.187-1.661-2.187l0,0h-3.795v12.545
				c0.024,1.794,0.737,1.92,1.871,1.944l0,0h0.551v0.097v0.818h-0.096V100.591z"/>
		</g>
		<g>
			<path d="M150.564,99.772h0.332c0.855,0,1.756-0.113,1.756-1.353V85.968c0-1.24-0.901-1.353-1.756-1.353h-0.332v-0.721
				c1.444,0,3.925,0.097,5.916,0.097c1.999,0,4.468-0.097,6.08-0.097c-0.039,1.025-0.016,2.596,0.055,3.641l-0.719,0.19
				c-0.111-1.543-0.399-2.779-2.894-2.779h-3.297v6.222h2.819c1.43,0,1.742-0.802,1.879-2.086h0.709
				c-0.045,0.928-0.069,1.851-0.069,2.779c0,0.907,0.024,1.807,0.069,2.71l-0.709,0.142c-0.138-1.426-0.21-2.353-1.855-2.353h-2.843
				v5.537c0,1.547,1.373,1.547,2.892,1.547c2.856,0,4.111-0.19,4.824-2.9l0.664,0.166c-0.308,1.264-0.593,2.515-0.806,3.779
				c-1.519,0-4.255-0.093-6.396-0.093c-2.139,0-4.966,0.093-6.319,0.093L150.564,99.772L150.564,99.772z"/>
			<path d="M163.279,100.591c-1.527,0-4.259-0.097-6.396-0.097l0,0c-2.139,0-4.962,0.097-6.319,0.097l0,0h-0.105v-0.101v-0.717
				v-0.097h0.105h0.332c0.859-0.016,1.644-0.093,1.652-1.256l0,0V85.968c-0.008-1.158-0.794-1.235-1.652-1.256l0,0h-0.438v-0.097
				v-0.818h0.105c1.448,0,3.925,0.093,5.916,0.093l0,0c1.995,0,4.464-0.093,6.08-0.093l0,0h0.107v0.105
				c-0.02,0.356-0.028,0.778-0.028,1.231l0,0c0,0.818,0.028,1.717,0.073,2.394l0,0v0.085l-0.077,0.024l-0.834,0.219l-0.004-0.126
				c-0.142-1.539-0.344-2.661-2.795-2.682l0,0h-3.204v6.015h2.726c1.373-0.008,1.612-0.713,1.776-1.993l0,0l0.008-0.093h0.091h0.822
				v0.105c-0.049,0.928-0.077,1.851-0.077,2.779l0,0c0,0.899,0.028,1.802,0.077,2.71l0,0v0.081l-0.085,0.02l-0.829,0.162
				l-0.006-0.107c-0.164-1.45-0.172-2.244-1.752-2.264l0,0l-2.75-0.004v5.44c0.004,1.446,1.248,1.438,2.799,1.446l0,0
				c2.864-0.016,4.008-0.158,4.723-2.827l0,0l0.024-0.097l0.101,0.02l0.762,0.198l-0.022,0.097
				c-0.308,1.256-0.589,2.515-0.804,3.771l0,0l-0.016,0.085L163.279,100.591L163.279,100.591z M163.192,100.384
				c0.204-1.199,0.476-2.402,0.771-3.597l0,0l-0.472-0.117c-0.711,2.661-2.088,2.896-4.895,2.876l0,0c-1.501,0-2.997,0-3.005-1.649
				l0,0v-5.638h2.957c1.661-0.02,1.827,0.984,1.944,2.337l0,0l0.515-0.105c-0.043-0.875-0.067-1.758-0.067-2.629l0,0
				c0-0.891,0.024-1.782,0.067-2.682l0,0h-0.515c-0.132,1.243-0.516,2.11-1.969,2.094l0,0h-2.933v-6.436h3.411
				c2.471-0.012,2.884,1.264,2.985,2.754l0,0l0.515-0.138c-0.041-0.672-0.065-1.527-0.065-2.321l0,0c0-0.413,0.008-0.794,0.02-1.13
				l0,0c-1.616,0.004-4.024,0.093-5.977,0.093l0,0c-1.952,0-4.36-0.089-5.814-0.093l0,0v0.506h0.231
				c0.847,0,1.859,0.146,1.863,1.458l0,0v12.451c-0.004,1.312-1.017,1.454-1.863,1.462l0,0h-0.231v0.502
				c1.381-0.004,4.132-0.093,6.218-0.093l0,0C158.981,100.291,161.655,100.38,163.192,100.384L163.192,100.384z"/>
		</g>
		<g>
			<path d="M167.297,86.418c0-1.738-0.952-1.802-1.689-1.802h-0.433v-0.721c0.762,0,2.236,0.097,3.69,0.097
				c1.42,0,2.564-0.097,3.828-0.097c2.987,0,5.65,0.81,5.65,4.188c0,2.139-1.422,3.443-3.299,4.188l4.065,6.076
				c0.664,1.009,1.134,1.288,2.303,1.426v0.717c-0.784,0-1.543-0.093-2.327-0.093c-0.741,0-1.501,0.093-2.236,0.093
				c-1.829-2.398-3.4-4.966-4.946-7.704h-1.563v5.087c0,1.835,0.853,1.9,1.944,1.9h0.433v0.717c-1.361,0-2.738-0.093-4.093-0.093
				c-1.14,0-2.256,0.093-3.449,0.093v-0.717h0.433c0.875,0,1.689-0.397,1.689-1.28L167.297,86.418L167.297,86.418z M170.339,91.931
				h1.16c2.38,0,3.66-0.899,3.66-3.706c0-2.11-1.355-3.471-3.471-3.471c-0.717,0-1.021,0.077-1.349,0.097L170.339,91.931
				L170.339,91.931z"/>
			<path d="M181.411,100.591c-0.796,0-1.551-0.093-2.335-0.093l0,0c-0.721,0-1.484,0.093-2.313,0.057l0,0
				c-1.819-2.394-3.382-4.946-4.919-7.664l0,0h-1.403v4.982c0.024,1.79,0.743,1.774,1.843,1.803l0,0h0.533v0.097v0.818h-0.107
				c-1.361,0-2.742-0.093-4.089-0.093l0,0c-1.136,0-2.248,0.093-3.445,0.093l0,0h-0.097v-0.101v-0.814h0.097h0.433
				c0.855-0.008,1.572-0.381,1.58-1.183l0,0V86.418c-0.016-1.685-0.842-1.681-1.58-1.705l0,0h-0.531v-0.097v-0.818h0.097
				c0.774,0,2.24,0.093,3.69,0.093l0,0c1.416,0,2.56-0.093,3.828-0.093l0,0c2.991,0,5.752,0.835,5.76,4.281l0,0
				c0,2.147-1.422,3.487-3.253,4.233l0,0l3.992,5.979c0.664,0.988,1.076,1.235,2.232,1.385l0,0l0.087,0.008v0.089v0.818H181.411
				L181.411,100.591z M170.335,92.684h1.624l0.028,0.053c1.547,2.734,3.111,5.298,4.861,7.651l0,0c0.727,0,1.491-0.097,2.228-0.097
				l0,0c0.76,0,1.495,0.081,2.232,0.093l0,0v-0.523c-1.116-0.134-1.636-0.47-2.284-1.454l0,0l-4.14-6.189l0.122-0.049
				c1.859-0.733,3.234-2.001,3.238-4.091l0,0c-0.004-3.293-2.568-4.063-5.551-4.075l0,0c-1.256,0-2.402,0.093-3.828,0.093l0,0
				c-1.402,0-2.809-0.089-3.585-0.093l0,0v0.506h0.328c0.737,0,1.784,0.122,1.784,1.908l0,0v12.075c0,0.956-0.889,1.389-1.784,1.389
				l0,0h-0.328v0.502c1.144-0.004,2.224-0.093,3.34-0.093l0,0c1.332,0,2.671,0.089,3.988,0.093l0,0v-0.502h-0.324
				c-1.084,0-2.052-0.134-2.052-2.009l0,0v-5.189h0.103V92.684z M170.335,92.032h-0.103v-7.279l0.091-0.008
				c0.324-0.028,0.644-0.089,1.365-0.089l0,0c2.163,0,3.573,1.405,3.577,3.572l0,0c-0.008,2.835-1.369,3.803-3.765,3.803l0,0
				L170.335,92.032L170.335,92.032z M171.499,91.829c2.351-0.024,3.54-0.838,3.56-3.601l0,0c-0.012-2.074-1.304-3.362-3.372-3.374
				l0,0c-0.644,0-0.944,0.057-1.247,0.089l0,0v6.886H171.499L171.499,91.829z"/>
		</g>
		<g>
			<path d="M197.546,95.807l0.045-0.049v-8.911c0-1.948-1.353-2.232-2.064-2.232h-0.525v-0.721c1.122,0,2.208,0.097,3.33,0.097
				c0.976,0,1.948-0.097,2.926-0.097v0.721h-0.354c-1,0-2.118,0.186-2.118,3.014v10.819c0,0.83,0.02,1.661,0.138,2.398h-0.899
				l-12.241-13.642v9.79c0,2.074,0.405,2.779,2.236,2.779h0.405v0.717c-1.025,0-2.05-0.093-3.07-0.093
				c-1.069,0-2.163,0.093-3.23,0.093v-0.717h0.326c1.645,0,2.143-1.11,2.143-3.014V86.75c0-1.332-1.094-2.134-2.161-2.134h-0.308
				v-0.721c0.899,0,1.833,0.097,2.732,0.097c0.711,0,1.399-0.097,2.114-0.097L197.546,95.807z"/>
			<path d="M198.924,100.951l-0.976-0.036l-12.063-13.444v9.523c0.03,2.074,0.342,2.657,2.135,2.681l0,0h0.504v0.097v0.818h-0.103
				c-1.029,0-2.05-0.097-3.066-0.097l0,0c-1.063,0-2.163,0.097-3.23,0.097l0,0h-0.111v-0.101v-0.814h0.111h0.326
				c1.569-0.008,2.021-1.021,2.037-2.92l0,0V86.75c-0.004-1.268-1.037-2.033-2.056-2.037l0,0h-0.419v-0.097v-0.818h0.111
				c0.903,0,1.837,0.093,2.732,0.093l0,0c0.701,0,1.387-0.093,2.183-0.065l0,0l10.45,11.763v-8.741
				c-0.002-1.892-1.272-2.122-1.962-2.135l0,0h-0.628v-0.097v-0.818h0.103c1.126,0,2.22,0.093,3.33,0.093l0,0
				c0.968,0,1.944-0.093,2.922-0.093l0,0h0.103v0.105v0.81h-0.103h-0.35c-0.98,0.024-1.993,0.118-2.017,2.916l0,0v10.819
				c0,0.826,0.02,1.649,0.14,2.382l0,0l0.012,0.122L198.924,100.951L198.924,100.951z M198.024,100.74h0.778
				c-0.099-0.709-0.122-1.507-0.122-2.292l0,0V87.629c0-2.852,1.203-3.115,2.224-3.119l0,0h0.247v-0.506
				c-0.936,0.004-1.875,0.093-2.819,0.093l0,0c-1.09,0-2.153-0.089-3.224-0.093l0,0v0.506h0.419
				c0.731,0.004,2.173,0.324,2.173,2.337l0,0l-0.032,8.984l-0.045,0.044l-0.077,0.081L186.97,84.004
				c-0.707,0-1.399,0.093-2.114,0.093l0,0c-0.881,0-1.77-0.089-2.633-0.093l0,0v0.506h0.209c1.116,0.004,2.262,0.847,2.262,2.24l0,0
				v10.005c0,1.908-0.539,3.119-2.244,3.127l0,0h-0.227v0.502c1.029-0.008,2.088-0.093,3.131-0.093l0,0
				c0.992,0,1.981,0.085,2.965,0.093l0,0v-0.502h-0.3c-1.871,0-2.341-0.814-2.345-2.888l0,0V86.936L198.024,100.74L198.024,100.74z
				 M197.546,95.807l0.077-0.069L197.546,95.807L197.546,95.807z M197.49,95.758V95.75l-0.014-0.016L197.49,95.758L197.49,95.758z"
				/>
		</g>
		<g>
			<path d="M205.084,97.091c-0.241,0.806-0.531,1.43-0.531,1.851c0,0.717,1.005,0.83,1.786,0.83h0.263v0.717
				c-0.956-0.049-1.928-0.093-2.88-0.093c-0.857,0-1.709,0.045-2.564,0.093v-0.717h0.14c0.927,0,1.715-0.547,2.064-1.543
				l3.807-10.904c0.308-0.883,0.741-2.07,0.879-2.953c0.762-0.259,1.713-0.733,2.165-1.021c0.073-0.024,0.111-0.045,0.188-0.045
				c0.069,0,0.118,0,0.168,0.069c0.071,0.19,0.14,0.405,0.217,0.595l4.37,12.431c0.284,0.83,0.569,1.713,0.877,2.426
				c0.288,0.664,0.788,0.944,1.572,0.944h0.14v0.717c-1.067-0.049-2.139-0.093-3.277-0.093c-1.162,0-2.353,0.045-3.562,0.093v-0.717
				h0.261c0.543,0,1.47-0.089,1.47-0.684c0-0.312-0.21-0.952-0.48-1.713l-0.923-2.758h-5.397L205.084,97.091z M208.551,86.56h-0.049
				l-2.212,6.728h4.443L208.551,86.56z"/>
			<path d="M217.738,100.591c-1.063-0.045-2.13-0.097-3.269-0.097l0,0c-1.162,0-2.345,0.053-3.562,0.097l0,0l-0.107,0.008v-0.11
				v-0.822h0.107h0.261c0.547,0,1.361-0.122,1.361-0.579l0,0c0.004-0.271-0.203-0.923-0.466-1.677l0,0l-0.903-2.69h-5.245
				l-0.741,2.398c-0.243,0.814-0.522,1.442-0.522,1.827l0,0c0.008,0.579,0.899,0.721,1.689,0.721l0,0h0.363v0.109v0.822
				l-0.107-0.008c-0.952-0.045-1.924-0.097-2.872-0.097l0,0c-0.853,0-1.709,0.053-2.56,0.097l0,0l-0.105,0.008v-0.11v-0.822h0.101
				h0.14c0.885,0,1.62-0.506,1.962-1.47l0,0l3.809-10.908c0.312-0.883,0.739-2.066,0.944-3.01l0,0
				c0.743-0.259,1.699-0.737,2.161-1.025l0,0c0.067-0.024,0.13-0.057,0.227-0.057l0,0c0.057-0.004,0.188,0.016,0.259,0.142l0,0
				c0.073,0.195,0.146,0.405,0.217,0.595l0,0l4.381,12.435c0.28,0.83,0.563,1.709,0.871,2.41l0,0
				c0.275,0.636,0.713,0.887,1.476,0.887l0,0h0.245v0.109v0.822L217.738,100.591L217.738,100.591z M211.006,100.376
				c1.173-0.036,2.329-0.085,3.463-0.085l0,0c1.106,0,2.139,0.049,3.174,0.085l0,0v-0.494h-0.036
				c-0.812,0.008-1.371-0.316-1.667-1.013l0,0c-0.308-0.721-0.597-1.604-0.877-2.434l0,0l-4.377-12.431
				c-0.073-0.19-0.144-0.405-0.202-0.575l0,0c-0.024-0.024-0.016-0.024-0.036-0.024l0,0c-0.012,0-0.028,0-0.045,0l0,0
				c-0.049,0-0.077,0.016-0.136,0.032l0,0c-0.46,0.296-1.416,0.765-2.121,0.952l0,0c-0.144,0.903-0.571,2.086-0.883,2.965l0,0
				l-3.799,10.912c-0.365,1.033-1.197,1.616-2.165,1.616l0,0h-0.036v0.494c0.812-0.036,1.636-0.085,2.461-0.085l0,0
				c0.92,0,1.859,0.049,2.767,0.085l0,0v-0.494h-0.15c-0.778-0.008-1.857-0.093-1.886-0.936l0,0c0-0.474,0.29-1.085,0.525-1.883l0,0
				l0.105,0.028l-0.105-0.032l0.784-2.54h5.539l0.952,2.823c0.269,0.765,0.486,1.397,0.486,1.746l0,0
				c-0.036,0.729-1.037,0.782-1.572,0.794l0,0h-0.162L211.006,100.376L211.006,100.376z M206.146,93.393l2.276-6.935h0.081h0.049
				v0.101l-0.024,0.008l0.024-0.008v-0.101h0.071l2.256,6.935H206.146L206.146,93.393z M206.431,93.186h4.16l-2.068-6.372
				L206.431,93.186L206.431,93.186z M208.446,86.592l0.057-0.016L208.446,86.592L208.446,86.592z"/>
		</g>
		<g>
			<path d="M218.795,85.085c-1.786,0-1.853,0.429-2.212,2.163h-0.717c0.097-0.664,0.219-1.329,0.287-2.021
				c0.097-0.664,0.144-1.333,0.144-2.017h0.569c0.19,0.713,0.786,0.685,1.426,0.685h12.265c0.64,0,1.231-0.02,1.28-0.733
				l0.571,0.097c-0.091,0.636-0.182,1.28-0.259,1.924c-0.057,0.64-0.057,1.284-0.057,1.924l-0.707,0.267
				c-0.041-0.883-0.164-2.289-1.756-2.289h-3.897v12.646c0,1.835,0.832,2.041,1.973,2.041h0.448v0.717
				c-0.923,0-2.586-0.093-3.87-0.093c-1.426,0-3.095,0.093-4.022,0.093v-0.717h0.454c1.312,0,1.979-0.113,1.979-1.989V85.085
				H218.795z"/>
			<path d="M228.154,100.591c-0.928,0-2.59-0.093-3.87-0.093l0,0c-1.422,0-3.083,0.093-4.022,0.093l0,0h-0.099v-0.101v-0.814h0.099
				h0.454c1.312-0.033,1.835-0.049,1.867-1.892l0,0V85.186h-3.787v-0.101v-0.101h3.994v12.8c0,1.904-0.766,2.09-2.074,2.098l0,0
				h-0.348v0.506c0.94-0.012,2.536-0.097,3.917-0.097l0,0c1.239,0,2.831,0.085,3.771,0.097l0,0l-0.004-0.506h-0.348
				c-1.144-0.008-2.068-0.28-2.072-2.151l0,0V84.984h4c1.6,0.004,1.802,1.357,1.851,2.24l0,0l0.516-0.19c0-0.616,0-1.24,0.051-1.863
				l0,0c0.065-0.612,0.158-1.219,0.241-1.823l0,0l-0.354-0.065c-0.113,0.689-0.782,0.729-1.377,0.721l0,0h-12.265
				c-0.047,0-0.085,0-0.122,0l0,0c-0.561,0.004-1.164-0.028-1.381-0.697l0,0h-0.389c-0.008,0.664-0.051,1.3-0.146,1.936l0,0
				c-0.065,0.656-0.182,1.28-0.269,1.904l0,0h0.512c0.312-1.653,0.514-2.195,2.297-2.163l0,0v0.101v0.101
				c-1.766,0.033-1.725,0.328-2.112,2.086l0,0l-0.016,0.081h-0.083h-0.838l0.016-0.122c0.097-0.664,0.217-1.329,0.288-2.013l0,0
				c0.097-0.668,0.142-1.329,0.142-2.009l0,0v-0.105h0.107h0.644l0.02,0.077c0.168,0.6,0.606,0.604,1.209,0.616l0,0
				c0.043,0,0.079,0,0.122,0l0,0h12.265c0.656-0.012,1.14-0.024,1.179-0.644l0,0l0.004-0.109l0.113,0.02l0.676,0.105l-0.02,0.101
				c-0.101,0.64-0.189,1.28-0.259,1.916l0,0c-0.045,0.636-0.045,1.28-0.045,1.92l0,0v0.073l-0.073,0.028l-0.842,0.308v-0.142
				c-0.061-0.891-0.158-2.187-1.661-2.187l0,0h-3.795v12.545c0.024,1.794,0.735,1.92,1.867,1.944l0,0h0.555v0.097v0.818h-0.106
				V100.591z"/>
		</g>
		<g>
			<path d="M233.286,99.772h0.332c0.861,0,1.76-0.113,1.76-1.353V85.968c0-1.24-0.899-1.353-1.76-1.353h-0.332v-0.721
				c0.928,0,2.351,0.097,3.516,0.097c1.189,0,2.615-0.097,3.737-0.097v0.721h-0.332c-0.861,0-1.768,0.113-1.768,1.353v12.451
				c0,1.24,0.907,1.353,1.768,1.353h0.332v0.717c-1.144,0-2.568-0.093-3.757-0.093c-1.168,0-2.568,0.093-3.495,0.093v-0.717H233.286
				z"/>
			<path d="M240.538,100.591c-1.148,0-2.572-0.097-3.757-0.097l0,0c-1.164,0-2.568,0.097-3.495,0.097l0,0h-0.099v-0.101v-0.717
				v-0.097h0.099h0.332c0.861-0.016,1.647-0.093,1.651-1.256l0,0V85.968c-0.004-1.158-0.79-1.24-1.651-1.256l0,0h-0.431v-0.097
				v-0.818h0.099c0.928,0,2.355,0.093,3.516,0.093l0,0c1.189,0,2.611-0.093,3.737-0.093l0,0h0.095v0.097v0.818h-0.095h-0.332
				c-0.869,0.016-1.653,0.097-1.661,1.256l0,0v12.451c0.008,1.162,0.792,1.24,1.661,1.256l0,0h0.427v0.097v0.818L240.538,100.591
				L240.538,100.591z M240.429,100.384v-0.502h-0.223c-0.853,0-1.863-0.15-1.863-1.462l0,0V85.968c0-1.312,1.011-1.458,1.863-1.458
				l0,0h0.223v-0.506c-1.096,0.004-2.467,0.093-3.627,0.093l0,0c-1.128,0-2.493-0.089-3.413-0.093l0,0v0.506h0.229
				c0.845,0,1.861,0.146,1.861,1.458l0,0v12.451c0,1.312-1.017,1.462-1.861,1.462l0,0h-0.229v0.502
				c0.92-0.012,2.26-0.093,3.392-0.093l0,0C237.934,100.291,239.311,100.376,240.429,100.384L240.429,100.384z"/>
		</g>
		<g>
			<path d="M250.017,83.542c5.065,0,9.105,3.139,9.105,8.202c0,5.468-3.921,9.101-8.984,9.101c-5.045,0-8.887-3.419-8.887-8.534
				C241.251,87.374,245.075,83.542,250.017,83.542z M250.373,99.801c4.618,0,5.416-4.067,5.416-7.53c0-3.475-1.871-7.68-5.819-7.68
				c-4.158,0-5.393,3.706-5.393,6.886C244.577,95.734,246.525,99.801,250.373,99.801z"/>
			<path d="M241.142,92.311c0.012-4.998,3.88-8.867,8.875-8.875l0,0v0.105v0.105c-4.891,0-8.672,3.775-8.672,8.664l0,0
				c0.008,5.055,3.801,8.425,8.794,8.429l0,0c5.01-0.004,8.875-3.585,8.887-9l0,0c-0.004-4.998-3.984-8.089-9.008-8.093l0,0v-0.105
				v-0.105c5.104,0.008,9.197,3.18,9.205,8.304l0,0c-0.004,5.525-3.972,9.199-9.083,9.211l0,0
				C245.055,100.939,241.154,97.476,241.142,92.311L241.142,92.311z M244.469,91.477c0.008-3.196,1.262-6.995,5.5-6.995l0,0
				c4.04,0.008,5.92,4.294,5.924,7.789l0,0c-0.004,3.463-0.82,7.627-5.521,7.627l0,0v-0.097V99.7
				c4.525-0.004,5.304-3.965,5.316-7.429l0,0c0-3.447-1.857-7.575-5.719-7.579l0,0c-4.077,0.004-5.284,3.621-5.292,6.784l0,0
				c0.004,4.237,1.936,8.21,5.695,8.223l0,0V99.8v0.097C246.43,99.894,244.478,95.758,244.469,91.477L244.469,91.477z"/>
		</g>
		<g>
			<path d="M275.142,95.807l0.047-0.049v-8.911c0-1.948-1.355-2.232-2.076-2.232h-0.51v-0.721c1.11,0,2.208,0.097,3.322,0.097
				c0.98,0,1.952-0.097,2.924-0.097v0.721h-0.356c-1,0-2.118,0.186-2.118,3.014v10.819c0,0.83,0.028,1.661,0.144,2.398h-0.905
				l-12.239-13.642v9.79c0,2.074,0.403,2.779,2.236,2.779h0.403v0.717c-1.023,0-2.042-0.093-3.066-0.093
				c-1.069,0-2.165,0.093-3.236,0.093v-0.717h0.336c1.645,0,2.135-1.11,2.135-3.014V86.75c0-1.332-1.088-2.134-2.163-2.134h-0.308
				v-0.721c0.907,0,1.831,0.097,2.736,0.097c0.711,0,1.399-0.097,2.112-0.097L275.142,95.807z"/>
			<path d="M276.517,100.951l-0.984-0.036l-12.06-13.444v9.523c0.028,2.074,0.344,2.653,2.128,2.673l0,0h0.516v0.109v0.814h-0.105
				c-1.027,0-2.05-0.093-3.066-0.093l0,0c-1.065,0-2.157,0.093-3.236,0.093l0,0h-0.097v-0.101v-0.822h0.097h0.336
				c1.568-0.004,2.019-1.013,2.031-2.908l0,0V86.75c0-1.268-1.035-2.033-2.06-2.037l0,0h-0.405v-0.097v-0.818h0.097
				c0.911,0,1.839,0.093,2.736,0.093l0,0c0.703,0,1.387-0.093,2.195-0.057l0,0l10.44,11.755v-8.741
				c-0.004-1.892-1.268-2.118-1.969-2.135l0,0h-0.62v-0.097v-0.818h0.105c1.118,0,2.22,0.093,3.318,0.093l0,0
				c0.98,0,1.944-0.093,2.932-0.093l0,0h0.101v0.097v0.818h-0.101h-0.356c-0.976,0.028-1.991,0.118-2.011,2.916l0,0v10.819
				c0,0.826,0.02,1.657,0.132,2.382l0,0l0.02,0.122L276.517,100.951L276.517,100.951z M275.612,100.74h0.786
				c-0.105-0.713-0.126-1.507-0.126-2.292l0,0V87.629c0-2.856,1.201-3.115,2.22-3.119l0,0h0.257v-0.506
				c-0.944,0.004-1.882,0.093-2.833,0.093l0,0c-1.073,0-2.139-0.089-3.216-0.093l0,0v0.506h0.413
				c0.741,0.004,2.175,0.328,2.175,2.337l0,0l-0.028,8.984l-0.043,0.044l-0.075,0.081l-10.584-11.953
				c-0.701,0-1.393,0.093-2.112,0.093l0,0c-0.877,0-1.772-0.089-2.633-0.093l0,0v0.506h0.204c1.12,0.004,2.268,0.847,2.268,2.24l0,0
				v10.009c0,1.904-0.529,3.115-2.24,3.123l0,0h-0.233v0.502c1.033-0.008,2.088-0.093,3.133-0.093l0,0
				c0.993,0,1.981,0.085,2.963,0.093l0,0v-0.502H265.6c-1.865,0-2.331-0.814-2.331-2.888l0,0V86.936L275.612,100.74L275.612,100.74z
				 M275.142,95.807l0.075-0.069L275.142,95.807L275.142,95.807z M275.081,95.758V95.75l-0.02-0.016L275.081,95.758L275.081,95.758z
				"/>
		</g>
		<g>
			<path d="M282.668,97.091c-0.231,0.806-0.518,1.43-0.518,1.851c0,0.717,1.005,0.83,1.778,0.83h0.265v0.717
				c-0.952-0.049-1.924-0.093-2.876-0.093c-0.865,0-1.715,0.045-2.564,0.093v-0.717h0.132c0.932,0,1.722-0.547,2.072-1.543
				l3.809-10.904c0.308-0.883,0.733-2.07,0.875-2.953c0.759-0.259,1.711-0.733,2.163-1.021c0.073-0.024,0.122-0.045,0.192-0.045
				c0.067,0,0.111,0,0.164,0.069c0.073,0.19,0.14,0.405,0.219,0.595l4.37,12.431c0.28,0.83,0.571,1.713,0.879,2.426
				c0.284,0.664,0.788,0.944,1.572,0.944h0.14v0.717c-1.067-0.049-2.141-0.093-3.279-0.093c-1.164,0-2.357,0.045-3.568,0.093v-0.717
				h0.263c0.545,0,1.476-0.089,1.476-0.684c0-0.312-0.217-0.952-0.48-1.713l-0.923-2.758h-5.391L282.668,97.091z M286.139,86.56
				h-0.046l-2.212,6.728h4.452L286.139,86.56z"/>
			<path d="M295.334,100.591c-1.069-0.041-2.143-0.093-3.273-0.093l0,0c-1.161,0-2.353,0.052-3.564,0.093l0,0l-0.105,0.008v-0.11
				v-0.814h0.101h0.259c0.553,0,1.373-0.13,1.377-0.587l0,0c0.004-0.271-0.209-0.92-0.48-1.677l0,0l-0.901-2.69H283.5l-0.731,2.398
				l0,0c-0.237,0.818-0.524,1.442-0.516,1.823l0,0c0,0.583,0.889,0.733,1.675,0.733l0,0h0.365v0.097v0.826l-0.107-0.008
				c-0.948-0.041-1.924-0.093-2.868-0.093l0,0c-0.857,0-1.707,0.052-2.564,0.093l0,0l-0.103,0.008v-0.11v-0.814h0.103h0.132
				c0.887-0.008,1.632-0.518,1.977-1.478l0,0l3.803-10.908c0.304-0.883,0.733-2.066,0.94-3.01l0,0
				c0.749-0.259,1.705-0.737,2.163-1.025l0,0c0.061-0.024,0.134-0.053,0.229-0.053l0,0c0.059-0.008,0.184,0.012,0.261,0.142l0,0
				c0.067,0.186,0.138,0.401,0.215,0.591l0,0l4.373,12.435c0.284,0.83,0.571,1.709,0.881,2.414l0,0
				c0.28,0.632,0.707,0.883,1.47,0.891l0,0h0.243v0.097v0.826L295.334,100.591L295.334,100.591z M288.598,100.38
				c1.171-0.04,2.331-0.089,3.463-0.089l0,0c1.104,0,2.139,0.049,3.172,0.085l0,0v-0.494h-0.036c-0.804,0-1.369-0.316-1.665-1.013
				l0,0c-0.316-0.721-0.6-1.604-0.883-2.434l0,0l-4.366-12.431c-0.073-0.19-0.15-0.405-0.207-0.567l0,0
				c-0.02-0.032-0.02-0.032-0.038-0.032l0,0c-0.008,0-0.024,0-0.04,0l0,0c-0.051,0-0.075,0.016-0.14,0.032l0,0
				c-0.46,0.292-1.408,0.77-2.121,0.952l0,0c-0.14,0.903-0.575,2.086-0.877,2.965l0,0l-3.808,10.912
				c-0.363,1.033-1.187,1.616-2.167,1.616l0,0h-0.036v0.494c0.82-0.036,1.64-0.085,2.469-0.085l0,0c0.92,0,1.855,0.049,2.777,0.085
				l0,0v-0.494h-0.166c-0.77-0.008-1.855-0.093-1.883-0.94l0,0c0.004-0.47,0.3-1.078,0.533-1.88l0,0l0.091,0.028l-0.091-0.032
				l0.78-2.54h5.545l0.948,2.823c0.267,0.765,0.478,1.397,0.478,1.746l0,0c-0.034,0.729-1.031,0.782-1.576,0.794l0,0H288.6v0.499
				H288.598z M283.737,93.385l2.289-6.926h0.067h0.046v0.101l-0.022,0.008l0.022-0.008v-0.101h0.077l2.248,6.926H283.737
				L283.737,93.385z M284.025,93.182h4.16l-2.072-6.363L284.025,93.182L284.025,93.182z M286.05,86.592l0.043-0.016L286.05,86.592
				L286.05,86.592z"/>
		</g>
		<g>
			<path d="M301.332,98.16c0,0.952,0.66,1.235,1.42,1.333c0.976,0.073,2.043,0.073,3.143-0.049c0.992-0.113,1.853-0.689,2.276-1.284
				c0.379-0.527,0.589-1.187,0.739-1.713h0.689c-0.263,1.357-0.595,2.69-0.883,4.042c-2.09,0-4.184-0.093-6.268-0.093
				c-2.096,0-4.188,0.093-6.28,0.093v-0.717h0.328c0.863,0,1.788-0.113,1.788-1.592V85.968c0-1.24-0.926-1.353-1.788-1.353h-0.328
				v-0.721c1.26,0,2.499,0.097,3.755,0.097c1.213,0,2.402-0.097,3.617-0.097v0.721h-0.6c-0.899,0-1.608,0.024-1.608,1.284
				L301.332,98.16L301.332,98.16z"/>
			<path d="M308.717,100.591c-2.094,0-4.184-0.093-6.268-0.093l0,0c-2.096,0-4.188,0.093-6.284,0.093l0,0h-0.097v-0.101v-0.814
				h0.097h0.332c0.863-0.02,1.681-0.081,1.689-1.495l0,0V85.964c-0.008-1.154-0.818-1.235-1.689-1.252l0,0h-0.429v-0.097v-0.818
				h0.097c1.268,0,2.503,0.093,3.759,0.093l0,0c1.209,0,2.398-0.093,3.617-0.093l0,0h0.093v0.097v0.818h-0.093h-0.6
				c-0.92,0.024-1.497-0.016-1.517,1.187l0,0V98.16c0.012,0.887,0.589,1.122,1.337,1.231l0,0c0.415,0.028,0.861,0.044,1.314,0.044
				l0,0c0.581,0,1.185-0.028,1.807-0.093l0,0c0.964-0.117,1.794-0.672,2.207-1.239l0,0c0.367-0.51,0.575-1.163,0.715-1.681l0,0
				l0.024-0.081h0.083h0.814l-0.024,0.13c-0.265,1.357-0.594,2.686-0.881,4.043l0,0l-0.024,0.077H308.717L308.717,100.591z
				 M308.636,100.384c0.275-1.288,0.587-2.552,0.836-3.836l0,0h-0.488c-0.144,0.522-0.357,1.158-0.733,1.673l0,0
				c-0.441,0.62-1.323,1.199-2.355,1.325l0,0c-0.624,0.069-1.239,0.097-1.821,0.097l0,0c-0.458,0-0.911-0.02-1.339-0.049l0,0
				c-0.768-0.089-1.521-0.417-1.513-1.434l0,0V85.899c0-1.325,0.832-1.389,1.717-1.389l0,0h0.494v-0.506
				c-1.171,0.004-2.331,0.093-3.512,0.093l0,0c-1.235,0-2.438-0.089-3.654-0.093l0,0v0.506h0.227c0.851,0,1.887,0.146,1.887,1.454
				l0,0V98.18c0,1.539-1.033,1.701-1.887,1.701l0,0h-0.227v0.502c2.05-0.004,4.111-0.093,6.179-0.093l0,0
				C304.512,100.291,306.572,100.38,308.636,100.384L308.636,100.384z"/>
		</g>
		<path d="M309.308,83.226c1.432,0,2.503,1.102,2.503,2.507c0,1.405-1.071,2.495-2.503,2.495c-1.428,0-2.503-1.09-2.503-2.495
			C306.805,84.328,307.88,83.226,309.308,83.226z M309.308,87.763c1.12,0,1.981-0.952,1.981-2.029s-0.844-2.042-1.981-2.042
			c-1.128,0-1.985,0.964-1.985,2.042S308.18,87.763,309.308,87.763z M308.064,87.054v-0.125c0.304-0.04,0.365-0.028,0.365-0.223
			v-1.851c0-0.263-0.028-0.352-0.357-0.336v-0.13h1.284c0.435,0,0.842,0.215,0.842,0.664c0,0.377-0.243,0.648-0.591,0.757
			l0.409,0.575c0.195,0.255,0.411,0.502,0.555,0.587v0.081h-0.488c-0.233,0-0.435-0.494-0.897-1.15h-0.275v0.826
			c0,0.17,0.057,0.158,0.36,0.198v0.125h-1.207V87.054z M308.911,85.733h0.292c0.324,0,0.474-0.243,0.474-0.636
			c0-0.401-0.237-0.539-0.49-0.539h-0.275v1.175H308.911z"/>
	</g>
	<path fill="#004A97" d="M41.889,113.921C18.911,114.03,0,95.414,0,72.753c0-24.765,18.911-41.894,41.889-41.89h10.768
		c22.705-0.004,43.43,17.117,43.43,41.89c0,22.653-20.724,41.167-43.43,41.167L41.889,113.921L41.889,113.921z M41.982,34.298
		C20.984,34.306,3.972,51.322,3.969,72.32c0.004,20.996,17.015,38.008,38.013,38.012c20.999-0.004,38.016-17.016,38.021-38.012
		C79.997,51.322,62.98,34.306,41.982,34.298z M33.351,94.802v-44.97c-9.035,3.479-15.444,12.224-15.467,22.488
		C17.907,82.582,24.316,91.327,33.351,94.802z M66.083,72.32c-0.017-10.268-6.436-19.025-15.478-22.492v44.983
		C59.647,91.339,66.066,82.59,66.083,72.32z"/>
</g>
</svg>
