<?xml version="1.0" encoding="utf-8"?>
<svg version="1.0" id="Layer_1" xmlns="http://www.w3.org/2000/svg" xmlns:xlink="http://www.w3.org/1999/xlink" x="0px" y="0px"
	 viewBox="0 0 396.85 158.68" enable-background="new 0 0 396.85 158.68" xml:space="preserve">
<g>
	<path fill="#231F20" d="M18.521,47.817H0.594v62.61h17.832c9.482,0,16.329-2.237,22.339-7.228
		c7.142-5.91,11.366-14.819,11.366-24.034C52.133,60.69,38.327,47.817,18.521,47.817z M32.788,94.851
		c-3.838,3.465-8.821,4.976-16.712,4.976h-3.277V58.426h3.277c7.891,0,12.679,1.411,16.712,5.063
		c4.224,3.76,6.764,9.589,6.764,15.585C39.552,85.086,37.012,91.092,32.788,94.851z"/>
	<rect x="57.752" y="47.817" fill="#231F20" width="12.213" height="62.61"/>
	<path fill="#231F20" d="M99.827,71.844c-7.328-2.711-9.48-4.5-9.48-7.882c0-3.945,3.834-6.94,9.097-6.94
		c3.66,0,6.666,1.503,9.848,5.07l6.39-8.367c-5.251-4.594-11.534-6.942-18.398-6.942c-11.078,0-19.528,7.693-19.528,17.94
		c0,8.626,3.934,13.042,15.404,17.169c4.782,1.686,7.215,2.809,8.443,3.565c2.44,1.593,3.662,3.85,3.662,6.478
		c0,5.073-4.033,8.831-9.482,8.831c-5.825,0-10.517-2.913-13.328-8.35l-7.889,7.598c5.627,8.259,12.384,11.92,21.677,11.92
		c12.691,0,21.594-8.438,21.594-20.558C117.835,81.428,113.72,76.924,99.827,71.844z"/>
	<path fill="#231F20" d="M121.689,79.165c0,18.403,14.452,32.673,33.048,32.673c5.258,0,9.76-1.034,15.312-3.648V93.814
		c-4.883,4.887-9.207,6.857-14.743,6.857c-12.3,0-21.029-8.918-21.029-21.597c0-12.02,9.006-21.504,20.462-21.504
		c5.825,0,10.234,2.079,15.312,7.045v-14.37c-5.361-2.72-9.768-3.846-15.024-3.846C136.521,46.402,121.689,60.962,121.689,79.165z"
		/>
	<polygon fill="#231F20" points="266.88,89.872 250.183,47.817 236.841,47.817 263.413,112.034 269.984,112.034 297.032,47.817 
		283.793,47.817 	"/>
	<polygon fill="#231F20" points="302.554,110.427 337.189,110.427 337.189,99.829 314.757,99.829 314.757,82.929 336.362,82.929 
		336.362,72.323 314.757,72.323 314.757,58.426 337.189,58.426 337.189,47.817 302.554,47.817 	"/>
	<path fill="#231F20" d="M385.543,66.301c0-11.722-8.074-18.484-22.158-18.484h-18.108v62.61h12.198V85.276h1.593l16.903,25.152
		h15.019L371.281,84.05C380.478,82.18,385.543,75.888,385.543,66.301z M361.043,76.642h-3.567V57.679h3.76
		c7.606,0,11.741,3.187,11.741,9.28C372.977,73.254,368.843,76.642,361.043,76.642z"/>
	<g id="MarkingBase_1_">
		<linearGradient id="SVGID_1_" gradientUnits="userSpaceOnUse" x1="224.3916" y1="106.0331" x2="201.3299" y2="69.9255">
			<stop  offset="0" style="stop-color:#F89F21"/>
			<stop  offset="0.2502" style="stop-color:#F79A23"/>
			<stop  offset="0.5331" style="stop-color:#F78E22"/>
			<stop  offset="0.6196" style="stop-color:#F68721"/>
			<stop  offset="0.7232" style="stop-color:#F48220"/>
			<stop  offset="1" style="stop-color:#F27623"/>
		</linearGradient>
		<circle fill="url(#SVGID_1_)" cx="207.343" cy="79.34" r="33.307"/>
		<linearGradient id="SVGID_2_" gradientUnits="userSpaceOnUse" x1="220.7486" y1="105.5422" x2="187.0435" y2="39.6636">
			<stop  offset="0" style="stop-color:#F68721;stop-opacity:0"/>
			<stop  offset="0.3587" style="stop-color:#E27027;stop-opacity:0.2704"/>
			<stop  offset="0.703" style="stop-color:#D4612C;stop-opacity:0.5299"/>
			<stop  offset="0.9816" style="stop-color:#D15D2D;stop-opacity:0.74"/>
		</linearGradient>
		<circle opacity="0.65" fill="url(#SVGID_2_)" enable-background="new    " cx="207.343" cy="79.34" r="33.307"/>
	</g>
	<g id="Registered_1_">
		<path fill="#231F20" d="M393.339,50.171c0-1.098-0.756-1.698-2.084-1.698h-1.767v5.503h1.313v-2.135l1.54,2.135h1.603l-1.81-2.269
			C392.912,51.499,393.339,50.935,393.339,50.171z M391.024,50.923h-0.222v-1.439h0.236c0.649,0,0.988,0.234,0.988,0.708
			C392.026,50.677,391.683,50.923,391.024,50.923z"/>
		<path fill="#231F20" d="M391.521,46.418c-2.672,0-4.793,2.132-4.793,4.797c0,2.664,2.145,4.799,4.793,4.799
			c2.603,0,4.736-2.159,4.736-4.799C396.257,48.586,394.123,46.418,391.521,46.418z M391.5,55.156c-2.103,0-3.823-1.75-3.823-3.934
			c0-2.191,1.698-3.94,3.823-3.94c2.093,0,3.799,1.789,3.799,3.94C395.299,53.387,393.595,55.156,391.5,55.156z"/>
	</g>
</g>
</svg>
