<?xml version="1.0" encoding="utf-8"?>
<svg version="1.0" id="Layer_1" xmlns="http://www.w3.org/2000/svg" xmlns:xlink="http://www.w3.org/1999/xlink" x="0px" y="0px"
	 viewBox="0 0 184.252 141.732" enable-background="new 0 0 184.252 141.732" xml:space="preserve">
<g>
	<path fill="#FFFFFF" d="M184.115,113.113c0,15.804-12.813,28.619-28.619,28.619H0.137V28.618C0.137,12.813,12.95,0,28.758,0
		h155.357V113.113z"/>
	<g>
		
			<linearGradient id="SVGID_1_" gradientUnits="userSpaceOnUse" x1="120.3462" y1="78.5607" x2="165.2833" y2="78.5607" gradientTransform="matrix(1.125 0 0 1.125 -11.9194 -9.6373)">
			<stop  offset="0" style="stop-color:#007F49"/>
			<stop  offset="0.2883" style="stop-color:#209348"/>
			<stop  offset="0.7632" style="stop-color:#50B047"/>
			<stop  offset="1" style="stop-color:#62BB46"/>
		</linearGradient>
		<path fill="url(#SVGID_1_)" d="M133.462,84.134h11.833c0.372,0,1.075-0.059,1.411-0.132c2.272-0.491,4.163-2.508,4.163-5.255
			c0-2.748-1.891-4.77-4.163-5.261c-0.335-0.073-1.039-0.133-1.411-0.133h-11.833V84.134z"/>
		
			<linearGradient id="SVGID_2_" gradientUnits="userSpaceOnUse" x1="120.3455" y1="71.5583" x2="165.2838" y2="71.5583" gradientTransform="matrix(1.125 0 0 1.125 -11.9194 -9.6373)">
			<stop  offset="0" style="stop-color:#007F49"/>
			<stop  offset="0.2883" style="stop-color:#209348"/>
			<stop  offset="0.7632" style="stop-color:#50B047"/>
			<stop  offset="1" style="stop-color:#62BB46"/>
		</linearGradient>
		<path fill="url(#SVGID_2_)" d="M143.912,9.54c-11.289,0-20.442,9.152-20.442,20.441v21.232h28.925c0.67,0,1.491,0.047,2.002,0.073
			c6.546,0.328,11.374,3.691,11.374,9.528c0,4.589-3.3,8.507-9.305,9.39v0.23c6.634,0.46,11.713,4.111,11.713,9.863
			c0,6.222-5.575,10.223-13.005,10.223h-31.704v41.672h29.983c11.289,0,20.442-9.153,20.442-20.442V9.54H143.912z"/>
		
			<linearGradient id="SVGID_3_" gradientUnits="userSpaceOnUse" x1="120.3459" y1="63.9362" x2="165.2805" y2="63.9362" gradientTransform="matrix(1.125 0 0 1.125 -11.9194 -9.6373)">
			<stop  offset="0" style="stop-color:#007F49"/>
			<stop  offset="0.2883" style="stop-color:#209348"/>
			<stop  offset="0.7632" style="stop-color:#50B047"/>
			<stop  offset="1" style="stop-color:#62BB46"/>
		</linearGradient>
		<path fill="url(#SVGID_3_)" d="M149.467,62.292c0-2.7-1.891-4.511-4.116-4.887c-0.208-0.035-0.774-0.09-1.164-0.09h-10.726v9.952
			h10.726c0.39,0,0.956-0.056,1.164-0.091C147.576,66.8,149.467,64.991,149.467,62.292z"/>
	</g>
	
		<linearGradient id="SVGID_4_" gradientUnits="userSpaceOnUse" x1="19.7444" y1="71.5583" x2="65.3765" y2="71.5583" gradientTransform="matrix(1.125 0 0 1.125 -11.9194 -9.6373)">
		<stop  offset="0" style="stop-color:#333376"/>
		<stop  offset="0.0931" style="stop-color:#2E3A7E"/>
		<stop  offset="0.6984" style="stop-color:#0D66AE"/>
		<stop  offset="1" style="stop-color:#0077C0"/>
	</linearGradient>
	<path fill="url(#SVGID_4_)" d="M30.801,9.54c-11.29,0-20.442,9.152-20.442,20.441v50.483c5.733,2.778,11.656,4.587,17.684,4.587
		c7.068,0,10.951-4.314,10.951-10.12V51.214h17.581V74.93c0,9.276-5.694,16.717-25.234,16.717c-11.76,0-20.983-2.536-20.983-2.536
		v43.081H40.34c11.289,0,20.442-9.153,20.442-20.442V9.54H30.801z"/>
	
		<linearGradient id="SVGID_5_" gradientUnits="userSpaceOnUse" x1="69.8056" y1="71.5583" x2="114.1239" y2="71.5583" gradientTransform="matrix(1.125 0 0 1.125 -11.9194 -9.6373)">
		<stop  offset="0" style="stop-color:#743237"/>
		<stop  offset="0.404" style="stop-color:#AB263E"/>
		<stop  offset="0.8025" style="stop-color:#DB1C44"/>
		<stop  offset="1" style="stop-color:#ED1846"/>
	</linearGradient>
	<path fill="url(#SVGID_5_)" d="M87.356,9.54c-11.29,0-20.442,9.152-20.442,20.441v26.762c5.179-4.443,14.136-7.219,28.688-6.564
		c7.789,0.347,16.05,2.436,16.05,2.436v8.655c-4.134-2.095-9.092-4.036-15.48-4.52c-11.044-0.834-17.69,4.563-17.69,14.116
		c0,9.551,6.646,14.947,17.69,14.109c6.388-0.479,11.412-2.472,15.48-4.514v8.65c0,0-8.261,2.089-16.05,2.442
		c-14.552,0.655-23.509-2.121-28.688-6.564v47.201h29.982c11.289,0,20.441-9.153,20.441-20.442V9.54H87.356z"/>
</g>
</svg>
