<?xml version="1.0" encoding="utf-8"?>
<svg version="1.0" id="Mastercard" xmlns="http://www.w3.org/2000/svg" xmlns:xlink="http://www.w3.org/1999/xlink" x="0px" y="0px"
	 viewBox="0 0 195.15 141.732" enable-background="new 0 0 195.15 141.732" xml:space="preserve">
<g id="brand">
	<path id="XMLID_1775_" d="M39.616,141.267v-9.384c0-3.534-2.251-5.912-5.88-5.943c-1.907-0.031-3.878,0.563-5.255,2.659
		c-1.033-1.657-2.659-2.659-4.942-2.659c-1.595,0-3.159,0.469-4.378,2.22v-1.845h-3.253v14.95h3.284v-8.289
		c0-2.595,1.439-3.973,3.659-3.973c2.158,0,3.253,1.408,3.253,3.941v8.32h3.284v-8.289c0-2.595,1.501-3.973,3.659-3.973
		c2.22,0,3.284,1.408,3.284,3.941v8.32h3.284C39.616,141.265,39.616,141.267,39.616,141.267z M88.221,126.315h-5.317v-4.535H79.62
		v4.535h-3.034v2.971h3.034v6.819c0,3.472,1.344,5.535,5.192,5.535c1.408,0,3.034-0.438,4.066-1.157L87.94,137.7
		c-0.969,0.563-2.033,0.845-2.877,0.845c-1.626,0-2.158-1.002-2.158-2.502v-6.756h5.317L88.221,126.315L88.221,126.315z
		 M115.965,125.94c-1.876,0-3.097,0.876-3.941,2.19v-1.814h-3.222v14.95h3.253v-8.383c0-2.472,1.064-3.847,3.191-3.847
		c0.657,0,1.344,0.094,2.033,0.375l1-3.066C117.56,126.066,116.622,125.94,115.965,125.94L115.965,125.94z M74.022,127.505
		c-1.565-1.033-3.723-1.565-6.1-1.565c-3.785,0-6.224,1.814-6.224,4.785c0,2.44,1.814,3.942,5.16,4.41l1.532,0.218
		c1.783,0.25,2.628,0.719,2.628,1.565c0,1.157-1.19,1.815-3.409,1.815c-2.251,0-3.878-0.719-4.973-1.565l-1.532,2.534
		c1.783,1.314,4.034,1.94,6.475,1.94c4.317,0,6.819-2.033,6.819-4.88c0-2.628-1.97-4.003-5.224-4.473l-1.532-0.218
		c-1.408-0.188-2.534-0.469-2.534-1.469c0-1.094,1.064-1.752,2.847-1.752c1.907,0,3.753,0.719,4.66,1.282L74.022,127.505z
		 M161.16,125.94c-1.876,0-3.097,0.876-3.941,2.19v-1.814h-3.222v14.95h3.252v-8.383c0-2.472,1.064-3.847,3.191-3.847
		c0.658,0,1.344,0.094,2.033,0.375l1-3.066C162.755,126.066,161.818,125.94,161.16,125.94L161.16,125.94z M119.248,133.791
		c0,4.535,3.159,7.851,7.976,7.851c2.251,0,3.753-0.501,5.38-1.783l-1.565-2.628c-1.22,0.876-2.502,1.344-3.91,1.344
		c-2.595-0.031-4.504-1.909-4.504-4.785c0-2.876,1.907-4.753,4.504-4.785c1.408,0,2.69,0.469,3.91,1.344l1.565-2.628
		c-1.626-1.282-3.127-1.783-5.38-1.783C122.408,125.94,119.248,129.256,119.248,133.791L119.248,133.791z M149.712,133.791v-7.476
		h-3.253v1.814c-1.033-1.344-2.595-2.19-4.723-2.19c-4.191,0-7.475,3.284-7.475,7.85c0,4.567,3.284,7.851,7.475,7.851
		c2.127,0,3.691-0.845,4.723-2.19v1.815h3.253V133.791z M137.608,133.791c0-2.626,1.719-4.785,4.535-4.785
		c2.69,0,4.504,2.064,4.504,4.785c0,2.722-1.815,4.785-4.504,4.785C139.329,138.576,137.608,136.418,137.608,133.791
		L137.608,133.791z M98.356,125.94c-4.378,0-7.444,3.191-7.444,7.85c0,4.755,3.191,7.851,7.662,7.851
		c2.251,0,4.317-0.564,6.131-2.097l-1.595-2.408c-1.251,1-2.847,1.565-4.348,1.565c-2.097,0-4.003-0.969-4.473-3.659h11.103
		c0.031-0.406,0.062-0.813,0.062-1.251C105.424,129.131,102.547,125.94,98.356,125.94L98.356,125.94z M98.293,128.849
		c2.097,0,3.441,1.314,3.785,3.628h-7.757C94.665,130.319,95.979,128.849,98.293,128.849L98.293,128.849z M179.895,133.791v-13.48
		h-3.253v7.819c-1.033-1.344-2.595-2.19-4.723-2.19c-4.191,0-7.475,3.284-7.475,7.85c0,4.567,3.284,7.851,7.475,7.851
		c2.127,0,3.69-0.845,4.723-2.19v1.815h3.253L179.895,133.791L179.895,133.791z M167.791,133.791c0-2.626,1.719-4.785,4.535-4.785
		c2.69,0,4.504,2.064,4.504,4.785c0,2.722-1.814,4.785-4.504,4.785C169.511,138.576,167.791,136.418,167.791,133.791
		L167.791,133.791z M57.946,133.791v-7.476h-3.253v1.814c-1.033-1.344-2.595-2.19-4.723-2.19c-4.191,0-7.475,3.284-7.475,7.85
		c0,4.567,3.284,7.851,7.475,7.851c2.127,0,3.691-0.845,4.723-2.19v1.815h3.253C57.946,141.266,57.946,133.791,57.946,133.791z
		 M45.841,133.791c0-2.626,1.719-4.785,4.535-4.785c2.69,0,4.504,2.064,4.504,4.785c0,2.722-1.814,4.785-4.504,4.785
		C47.562,138.576,45.841,136.418,45.841,133.791z M185.318,139.1c0.209,0,0.405,0.039,0.589,0.117
		c0.183,0.077,0.343,0.184,0.481,0.318c0.137,0.136,0.245,0.292,0.324,0.474c0.078,0.18,0.119,0.374,0.119,0.576
		c0,0.204-0.039,0.396-0.119,0.575c-0.078,0.179-0.188,0.336-0.324,0.471c-0.138,0.136-0.298,0.24-0.481,0.321
		c-0.184,0.079-0.38,0.119-0.589,0.119c-0.214,0-0.413-0.039-0.6-0.119c-0.186-0.079-0.346-0.185-0.483-0.321
		c-0.137-0.136-0.244-0.292-0.323-0.471c-0.078-0.179-0.119-0.372-0.119-0.575s0.039-0.396,0.119-0.576
		c0.078-0.18,0.186-0.338,0.323-0.474c0.136-0.136,0.297-0.24,0.483-0.318C184.905,139.139,185.104,139.1,185.318,139.1z
		 M185.318,141.744c0.16,0,0.309-0.031,0.449-0.091c0.14-0.06,0.26-0.144,0.364-0.248c0.105-0.105,0.186-0.227,0.246-0.368
		c0.059-0.141,0.089-0.292,0.089-0.452c0-0.16-0.03-0.311-0.089-0.452c-0.059-0.141-0.141-0.264-0.246-0.368
		c-0.105-0.105-0.226-0.186-0.364-0.246s-0.287-0.089-0.449-0.089c-0.162,0-0.315,0.03-0.457,0.089
		c-0.142,0.059-0.266,0.141-0.369,0.246c-0.105,0.105-0.186,0.227-0.246,0.368c-0.059,0.141-0.089,0.292-0.089,0.452
		c0,0.16,0.03,0.311,0.089,0.452c0.059,0.141,0.141,0.264,0.246,0.368c0.105,0.104,0.228,0.188,0.369,0.248
		C185.002,141.713,185.156,141.744,185.318,141.744z M185.405,139.89c0.177,0,0.314,0.039,0.41,0.119
		c0.096,0.079,0.144,0.186,0.144,0.323c0,0.114-0.038,0.209-0.115,0.283c-0.076,0.075-0.185,0.12-0.326,0.137l0.452,0.521h-0.354
		l-0.418-0.517h-0.136v0.517h-0.296v-1.38h0.64L185.405,139.89L185.405,139.89z M185.063,140.149v0.368h0.338
		c0.077,0,0.14-0.016,0.186-0.047c0.047-0.03,0.069-0.077,0.069-0.14c0-0.06-0.022-0.106-0.069-0.137
		c-0.047-0.03-0.108-0.046-0.186-0.046h-0.338V140.149z"/>
</g>
<g id="mark">
	<rect x="72.941" y="12.378" fill="#FF5F00" width="49.269" height="88.538"/>
	<path id="XMLID_330_" fill="#EB001B" d="M76.07,56.645c0-17.962,8.41-33.958,21.505-44.268C87.998,4.837,75.913,0.338,62.778,0.338
		c-31.096,0-56.303,25.21-56.303,56.307s25.208,56.307,56.303,56.307c13.135,0,25.22-4.498,34.797-12.039
		C84.479,90.605,76.07,74.608,76.07,56.645z"/>
	<path fill="#F79E1B" d="M188.674,56.645c0,31.097-25.208,56.307-56.303,56.307c-13.135,0-25.22-4.498-34.797-12.039
		c13.096-10.311,21.505-26.307,21.505-44.268s-8.409-33.958-21.505-44.268c9.577-7.54,21.662-12.039,34.797-12.039
		C163.467,0.339,188.674,25.549,188.674,56.645z M183.303,91.537v-1.813h0.731v-0.369h-1.861v0.369h0.731v1.813H183.303z
		 M186.917,91.537v-2.186h-0.571l-0.657,1.504l-0.657-1.504h-0.571v2.186h0.403v-1.648l0.615,1.421h0.417l0.615-1.426v1.653h0.403
		v0.001H186.917z"/>
</g>
</svg>
