<?xml version="1.0" encoding="utf-8"?>
<svg version="1.0" id="Mastercard" xmlns="http://www.w3.org/2000/svg" xmlns:xlink="http://www.w3.org/1999/xlink" x="0px" y="0px"
	 viewBox="0 0 251.15 158.68" enable-background="new 0 0 251.15 158.68" xml:space="preserve">
<g class="Brand" id="brand">
	<path id="XMLID_1775_" d="M70.865,145.814v-8.858c0-3.336-2.125-5.581-5.55-5.61c-1.8-0.029-3.661,0.531-4.96,2.51
		c-0.975-1.564-2.51-2.51-4.665-2.51c-1.506,0-2.982,0.443-4.133,2.096V131.7h-3.071v14.112h3.1v-7.824
		c0-2.45,1.358-3.75,3.454-3.75c2.037,0,3.071,1.329,3.071,3.72v7.854h3.1v-7.824c0-2.45,1.417-3.75,3.454-3.75
		c2.096,0,3.1,1.329,3.1,3.72v7.854h3.1V145.814z M116.745,131.7h-5.019v-4.281h-3.1v4.281h-2.864v2.804h2.864v6.437
		c0,3.277,1.269,5.225,4.901,5.225c1.329,0,2.864-0.413,3.838-1.092l-0.885-2.627c-0.915,0.531-1.919,0.798-2.716,0.798
		c-1.535,0-2.037-0.946-2.037-2.362v-6.377h5.019V131.7H116.745z M142.934,131.346c-1.771,0-2.923,0.827-3.72,2.067v-1.712h-3.041
		v14.112h3.071v-7.913c0-2.333,1.004-3.631,3.012-3.631c0.62,0,1.269,0.089,1.919,0.354l0.944-2.894
		C144.44,131.465,143.554,131.346,142.934,131.346L142.934,131.346z M103.342,132.823c-1.477-0.975-3.514-1.477-5.758-1.477
		c-3.573,0-5.875,1.712-5.875,4.517c0,2.303,1.712,3.721,4.871,4.163l1.446,0.206c1.683,0.236,2.481,0.679,2.481,1.477
		c0,1.092-1.123,1.713-3.218,1.713c-2.125,0-3.661-0.679-4.694-1.477l-1.446,2.392c1.683,1.24,3.808,1.831,6.112,1.831
		c4.075,0,6.437-1.919,6.437-4.606c0-2.481-1.86-3.779-4.931-4.222l-1.446-0.206c-1.329-0.177-2.392-0.443-2.392-1.387
		c0-1.033,1.004-1.654,2.687-1.654c1.8,0,3.543,0.679,4.399,1.21L103.342,132.823z M185.596,131.346
		c-1.771,0-2.923,0.827-3.72,2.067v-1.712h-3.041v14.112h3.07v-7.913c0-2.333,1.004-3.631,3.012-3.631
		c0.621,0,1.269,0.089,1.919,0.354l0.944-2.894C187.102,131.465,186.217,131.346,185.596,131.346L185.596,131.346z M146.033,138.757
		c0,4.281,2.982,7.411,7.529,7.411c2.125,0,3.543-0.473,5.078-1.683l-1.477-2.481c-1.152,0.827-2.362,1.269-3.691,1.269
		c-2.45-0.029-4.252-1.802-4.252-4.517s1.8-4.487,4.252-4.517c1.329,0,2.539,0.443,3.691,1.269l1.477-2.481
		c-1.535-1.21-2.952-1.683-5.078-1.683C149.016,131.346,146.033,134.476,146.033,138.757L146.033,138.757z M174.79,138.757V131.7
		h-3.071v1.712c-0.975-1.269-2.45-2.067-4.458-2.067c-3.956,0-7.056,3.1-7.056,7.41c0,4.311,3.1,7.411,7.056,7.411
		c2.008,0,3.484-0.798,4.458-2.067v1.713h3.071V138.757z M163.364,138.757c0-2.479,1.623-4.517,4.281-4.517
		c2.539,0,4.252,1.948,4.252,4.517s-1.713,4.517-4.252,4.517C164.989,143.274,163.364,141.237,163.364,138.757L163.364,138.757z
		 M126.312,131.346c-4.133,0-7.027,3.012-7.027,7.41c0,4.488,3.012,7.411,7.233,7.411c2.125,0,4.075-0.532,5.787-1.979l-1.506-2.273
		c-1.181,0.944-2.687,1.477-4.104,1.477c-1.979,0-3.779-0.915-4.222-3.454h10.481c0.029-0.383,0.059-0.767,0.059-1.181
		C132.984,134.358,130.268,131.346,126.312,131.346L126.312,131.346z M126.253,134.092c1.979,0,3.248,1.24,3.573,3.425h-7.322
		C122.828,135.479,124.068,134.092,126.253,134.092L126.253,134.092z M203.281,138.757v-12.724h-3.071v7.381
		c-0.975-1.269-2.45-2.067-4.458-2.067c-3.956,0-7.056,3.1-7.056,7.41c0,4.311,3.1,7.411,7.056,7.411
		c2.008,0,3.483-0.798,4.458-2.067v1.713h3.071V138.757z M191.855,138.757c0-2.479,1.623-4.517,4.281-4.517
		c2.539,0,4.252,1.948,4.252,4.517s-1.712,4.517-4.252,4.517C193.479,143.274,191.855,141.237,191.855,138.757L191.855,138.757z
		 M88.167,138.757V131.7h-3.071v1.712c-0.975-1.269-2.45-2.067-4.458-2.067c-3.956,0-7.056,3.1-7.056,7.41
		c0,4.311,3.1,7.411,7.056,7.411c2.008,0,3.484-0.798,4.458-2.067v1.713h3.071C88.167,145.813,88.167,138.757,88.167,138.757z
		 M76.741,138.757c0-2.479,1.623-4.517,4.281-4.517c2.539,0,4.252,1.948,4.252,4.517s-1.712,4.517-4.252,4.517
		C78.365,143.274,76.741,141.237,76.741,138.757z M208.4,143.768c0.197,0,0.382,0.037,0.556,0.11c0.173,0.073,0.324,0.174,0.454,0.3
		c0.129,0.128,0.231,0.276,0.306,0.447c0.074,0.17,0.112,0.353,0.112,0.544c0,0.193-0.037,0.374-0.112,0.543
		c-0.074,0.169-0.177,0.317-0.306,0.445c-0.13,0.128-0.281,0.227-0.454,0.303c-0.174,0.075-0.359,0.112-0.556,0.112
		c-0.202,0-0.39-0.037-0.566-0.112c-0.176-0.075-0.327-0.175-0.456-0.303c-0.129-0.128-0.23-0.276-0.305-0.445
		c-0.074-0.169-0.112-0.351-0.112-0.543s0.037-0.374,0.112-0.544c0.074-0.17,0.176-0.319,0.305-0.447
		c0.128-0.128,0.28-0.227,0.456-0.3C208.01,143.805,208.198,143.768,208.4,143.768z M208.4,146.264c0.151,0,0.292-0.029,0.424-0.086
		s0.245-0.136,0.344-0.234c0.099-0.099,0.176-0.214,0.232-0.347c0.056-0.133,0.084-0.276,0.084-0.427s-0.028-0.294-0.084-0.427
		c-0.056-0.133-0.133-0.249-0.232-0.347c-0.099-0.099-0.213-0.176-0.344-0.232c-0.131-0.056-0.271-0.084-0.424-0.084
		c-0.153,0-0.297,0.028-0.431,0.084c-0.134,0.056-0.251,0.133-0.348,0.232c-0.099,0.099-0.176,0.214-0.232,0.347
		c-0.056,0.133-0.084,0.276-0.084,0.427s0.028,0.294,0.084,0.427c0.056,0.133,0.133,0.249,0.232,0.347s0.215,0.177,0.348,0.234
		C208.102,146.235,208.247,146.264,208.4,146.264z M208.482,144.514c0.167,0,0.296,0.037,0.387,0.112
		c0.091,0.075,0.136,0.176,0.136,0.305c0,0.108-0.036,0.197-0.109,0.267c-0.072,0.071-0.175,0.113-0.308,0.129l0.427,0.492h-0.334
		l-0.395-0.488h-0.128v0.488h-0.279v-1.303h0.604V144.514z M208.159,144.758v0.347h0.319c0.073,0,0.132-0.015,0.176-0.044
		c0.044-0.028,0.065-0.073,0.065-0.132c0-0.057-0.021-0.1-0.065-0.129c-0.044-0.028-0.102-0.043-0.176-0.043H208.159z"/>
</g>
<g class="Mark" id="mark">
	<rect x="102.322" y="24.149" fill="#FF5F00" width="46.507" height="83.575"/>
	<path id="XMLID_330_" fill="#EB001B" d="M105.275,65.935c0-16.955,7.939-32.055,20.3-41.787
		c-9.04-7.117-20.448-11.364-32.847-11.364c-29.353,0-53.147,23.797-53.147,53.151s23.795,53.151,53.147,53.151
		c12.399,0,23.806-4.246,32.847-11.364C113.213,97.991,105.275,82.891,105.275,65.935z"/>
	<path fill="#F79E1B" d="M211.568,65.935c0,29.354-23.795,53.151-53.147,53.151c-12.399,0-23.806-4.246-32.847-11.364
		c12.362-9.733,20.3-24.832,20.3-41.787s-7.938-32.055-20.3-41.787c9.04-7.117,20.448-11.364,32.847-11.364
		C187.774,12.785,211.568,36.582,211.568,65.935z M206.498,98.871V97.16h0.69v-0.348h-1.757v0.348h0.69v1.711H206.498z
		 M209.909,98.871v-2.063h-0.539l-0.62,1.42l-0.62-1.42h-0.539v2.063h0.38v-1.556l0.581,1.341h0.394l0.581-1.346v1.56h0.38V98.871z"
		/>
</g>
</svg>
