<?xml version="1.0" encoding="utf-8"?>
<svg version="1.0" id="Layer_1" xmlns="http://www.w3.org/2000/svg" xmlns:xlink="http://www.w3.org/1999/xlink" x="0px" y="0px"
	 viewBox="0 0 283.465 141.732" enable-background="new 0 0 283.465 141.732" xml:space="preserve">
<g id="Mark">
	<g>
		<g>
			<defs>
				<path id="SVGID_1_" d="M146.602,54.361c-0.161,12.751,11.364,19.867,20.045,24.097c8.92,4.341,11.917,7.124,11.883,11.005
					c-0.068,5.941-7.116,8.563-13.713,8.665c-11.508,0.179-18.199-3.107-23.519-5.592l-4.145,19.399
					c5.337,2.46,15.22,4.605,25.468,4.699c24.055,0,39.793-11.875,39.879-30.285c0.093-23.365-32.32-24.659-32.099-35.103
					c0.076-3.167,3.099-6.545,9.72-7.405c3.277-0.435,12.325-0.767,22.583,3.959l4.027-18.769
					c-5.516-2.009-12.607-3.932-21.433-3.932C162.655,25.097,146.73,37.133,146.602,54.361 M245.416,26.714
					c-4.392,0-8.095,2.563-9.747,6.495l-34.363,82.047h24.037l4.784-13.219h29.375l2.775,13.219h21.187l-18.488-88.542H245.416
					 M248.779,50.633l6.937,33.248h-18.999L248.779,50.633 M117.456,26.714l-18.948,88.542h22.905l18.939-88.542H117.456
					 M83.571,26.714L59.728,86.98l-9.644-51.241c-1.132-5.72-5.601-9.023-10.563-9.023H0.545L0,29.286
					c8.001,1.736,17.092,4.537,22.599,7.533c3.371,1.831,4.332,3.431,5.439,7.78l18.267,70.657h24.208l37.113-88.543H83.571"/>
			</defs>
			<clipPath id="SVGID_2_">
				<use xlink:href="#SVGID_1_"  overflow="visible"/>
			</clipPath>
			
				<linearGradient id="Gradient_1_" gradientUnits="userSpaceOnUse" x1="-1.8612" y1="159.2245" x2="-1.292" y2="159.2245" gradientTransform="matrix(419.708 -154.5691 -154.5691 -419.708 25417.9414 66653.7344)">
				<stop  offset="0" style="stop-color:#212457"/>
				<stop  offset="1" style="stop-color:#294DA1"/>
			</linearGradient>
			<path id="Gradient" clip-path="url(#SVGID_2_)" fill="url(#Gradient_1_)" d="M-29.684,36.029L249.613-66.829l63.539,172.535
				L33.857,208.565"/>
		</g>
	</g>
</g>
</svg>
