<?xml version="1.0" encoding="utf-8"?>
<svg version="1.0" id="Layer_1" xmlns="http://www.w3.org/2000/svg" xmlns:xlink="http://www.w3.org/1999/xlink" x="0px" y="0px"
	 viewBox="0 0 231.15 141.732" enable-background="new 0 0 231.15 141.732" xml:space="preserve">
<g id="Mark">
	<g>
		<defs>
			<path id="SVGID_1_" d="M118.652,57.555c-0.121,9.563,8.523,14.9,15.034,18.073c6.69,3.256,8.938,5.343,8.912,8.254
				c-0.051,4.456-5.337,6.422-10.285,6.499c-8.631,0.134-13.649-2.33-17.639-4.194l-3.109,14.549
				c4.003,1.845,11.415,3.454,19.101,3.524c18.041,0,29.845-8.906,29.909-22.714c0.07-17.524-24.24-18.494-24.074-26.327
				c0.057-2.375,2.324-4.909,7.29-5.554c2.458-0.326,9.244-0.575,16.937,2.969l3.02-14.077c-4.137-1.507-9.455-2.949-16.075-2.949
				C130.692,35.607,118.748,44.634,118.652,57.555 M192.763,36.82c-3.294,0-6.071,1.922-7.31,4.871l-25.772,61.535h18.028
				l3.588-9.914h22.031l2.081,9.914h15.89L207.433,36.82H192.763 M195.285,54.759l5.203,24.936h-14.249L195.285,54.759
				 M96.793,36.82l-14.211,66.406h17.179l14.204-66.406H96.793 M71.379,36.82L53.497,82.019l-7.233-38.431
				c-0.849-4.29-4.201-6.767-7.922-6.767H9.11l-0.409,1.928c6.001,1.302,12.819,3.403,16.949,5.65
				c2.528,1.373,3.249,2.573,4.079,5.835l13.7,52.993h18.156L89.42,36.82H71.379"/>
		</defs>
		<clipPath id="SVGID_2_">
			<use xlink:href="#SVGID_1_"  overflow="visible"/>
		</clipPath>
		
			<linearGradient id="Gradient_1_" gradientUnits="userSpaceOnUse" x1="-18.9625" y1="-8.5706" x2="-18.5356" y2="-8.5706" gradientTransform="matrix(419.708 -154.5691 154.5691 419.708 9311.3613 768.1431)">
			<stop  offset="0" style="stop-color:#212457"/>
			<stop  offset="1" style="stop-color:#294DA1"/>
		</linearGradient>
		<path id="Gradient" clip-path="url(#SVGID_2_)" fill="url(#Gradient_1_)" d="M-13.562,43.806L195.91-33.337l47.654,129.401
			l-209.47,77.144"/>
	</g>
</g>
</svg>
