<?xml version="1.0" encoding="utf-8"?>
<svg version="1.0" id="Layer_1" xmlns="http://www.w3.org/2000/svg" xmlns:xlink="http://www.w3.org/1999/xlink" x="0px" y="0px"
	 viewBox="0 0 251.15 158.68" enable-background="new 0 0 251.15 158.68" xml:space="preserve">
<path id="Card_Shape" fill="#007DC3" d="M242.646,158.68H8.504c-4.677,0-8.504-3.827-8.504-8.504V8.504C0,3.827,3.827,0,8.504,0
	h234.142c4.677,0,8.504,3.827,8.504,8.504v141.672C251.15,154.853,247.323,158.68,242.646,158.68z"/>
<path display="none" fill="#007DC3" d="M148.25,57.77h-42.31v42.46h42.3v-14c0.179-0.276,0.267-0.601,0.25-0.93
	c0.027-0.326-0.062-0.652-0.25-0.92L148.25,57.77z"/>
<g>
	<path fill="#FFFFFF" d="M33.246,56.163L28.932,45.51l-4.314,10.652H33.246z M128.744,52.008c-0.987,0.436-2.067,0.619-3.142,0.533
		h-7.723v-5.965h7.829c1.018-0.071,2.038,0.093,2.983,0.479c0.872,0.445,1.396,1.366,1.332,2.344
		c0.058,1.032-0.453,2.012-1.332,2.557 M183.657,56.163l-4.421-10.652l-4.314,10.652H183.657z M81.288,67.561H74.79V46.842
		l-9.161,20.719h-5.326l-9.268-20.772v20.772H37.933l-2.45-5.912H22.327l-2.45,5.912H13.22L24.564,40.93h9.427l10.652,25.086V41.09
		h10.333l8.309,18.002l7.616-18.002h10.652L81.288,67.561z M107.173,67.561H85.868V40.93h21.305v5.326H92.366v4.794H106.8v5.326
		H92.366v5.326h14.807V67.561z M137.053,48.227c0.122,3.102-1.677,5.96-4.527,7.19c1.232,0.446,2.318,1.219,3.142,2.237
		c0.882,1.453,1.257,3.158,1.065,4.847v5.326h-6.338v-3.355c0.313-1.839-0.047-3.73-1.012-5.326
		c-0.905-0.959-2.344-1.118-4.634-1.118h-6.871v9.64h-6.338V41.036h14.54c2.625-0.257,5.27,0.184,7.67,1.278
		c2.15,1.135,3.425,3.434,3.249,5.859 M147.119,67.507h-6.498V40.877h6.498V67.507z M222.058,67.507h-8.948l-12.037-19.867v19.867
		h-12.889l-2.45-5.912h-13.156l-2.344,5.912h-7.457c-6.117,0.862-11.774-3.398-12.636-9.515c-0.165-1.174-0.143-2.367,0.066-3.534
		c-0.296-3.762,0.932-7.485,3.409-10.333c2.658-2.301,6.14-3.417,9.64-3.089h6.125v5.646h-5.965c-1.788-0.207-3.577,0.377-4.9,1.598
		c-1.316,1.719-1.96,3.859-1.811,6.019c-0.262,2.294,0.367,4.601,1.758,6.445c1.216,1.019,2.786,1.517,4.367,1.385h2.823
		l8.948-20.825h9.481l10.652,25.033V41.303h9.64l11.238,18.215V41.09h6.498L222.058,67.507z M12.9,72.834h10.652l2.45-5.912h5.326
		l2.45,5.912h21.305v-4.527l1.917,4.527h11.025l1.864-4.581v4.581h52.942v-9.747h1.012c0.692,0,0.905,0,0.905,1.278v8.362h27.376
		V70.49c3.138,1.567,6.614,2.336,10.12,2.237h11.824l2.45-5.912h5.326l2.397,5.912H206.4v-5.539l3.355,5.592h17.736V35.817h-17.204
		v4.367l-2.45-4.367h-18.215v4.367l-2.237-4.367h-24.394c-3.673-0.196-7.337,0.537-10.652,2.13v-2.13h-16.618v2.13
		c-2.045-1.546-4.579-2.302-7.137-2.13H66.961l-4.154,9.534l-4.208-9.534H39.265v4.367l-2.184-4.367H20.57L12.9,53.34V72.834z"/>
	<path fill="#FFFFFF" d="M238.25,92.327h-11.611c-0.881-0.104-1.773,0.064-2.557,0.479c-0.641,0.42-1.007,1.152-0.959,1.917
		c-0.005,0.885,0.551,1.676,1.385,1.971c0.797,0.224,1.622,0.332,2.45,0.32h3.462c2.581-0.237,5.155,0.526,7.19,2.13
		c0.219,0.21,0.415,0.442,0.586,0.692L238.25,92.327z M238.25,109.797c-2.133,2.496-5.365,3.773-8.628,3.409h-12.25v-5.752h12.197
		c0.902,0.116,1.815-0.113,2.557-0.639c0.506-0.444,0.798-1.084,0.799-1.758c0.021-0.678-0.274-1.328-0.799-1.758
		c-0.645-0.427-1.412-0.632-2.184-0.586c-5.965,0-13.369,0-13.369-8.202c-0.048-4.353,3.441-7.921,7.795-7.97
		c0.422-0.005,0.843,0.024,1.26,0.087h12.623v-5.326h-11.984c-2.811-0.143-5.594,0.622-7.936,2.184v-2.184h-17.097
		c-2.695-0.144-5.36,0.625-7.563,2.184v-2.184h-30.945v2.184c-2.591-1.485-5.536-2.24-8.522-2.184h-20.452v2.184
		c-2.605-1.586-5.642-2.312-8.682-2.077h-23.116l-5.326,5.646l-4.9-5.646H57.693v36.964h33.502l5.326-5.752l5.326,5.752h20.666
		v-8.682h2.024c2.915,0.234,5.847-0.11,8.628-1.012v9.96h17.044v-9.96h0.852c1.065,0,1.172,0,1.172,1.065v8.575h51.664
		c3.054,0.104,6.066-0.733,8.628-2.397v2.397h16.405c3.193,0.111,6.373-0.471,9.321-1.704V109.797z M212.951,99.145
		c1.33,1.445,2.021,3.365,1.917,5.326c0,5.699-3.569,8.362-9.907,8.362h-12.41v-5.379h12.41c0.919,0.109,1.845-0.118,2.61-0.639
		c0.476-0.461,0.745-1.095,0.746-1.758c0.006-0.675-0.287-1.318-0.799-1.758c-0.665-0.427-1.448-0.633-2.237-0.586
		c-5.912,0-13.315,0-13.315-8.202c0-3.835,2.397-7.883,9.054-7.883h12.676v5.646h-11.718c-0.806-0.078-1.617,0.07-2.344,0.426
		c-0.66,0.404-1.032,1.148-0.959,1.917c-0.022,0.89,0.54,1.69,1.385,1.971c0.796,0.228,1.622,0.336,2.45,0.32h3.462
		c2.58-0.226,5.15,0.535,7.19,2.13 M156.014,97.387c-0.981,0.457-2.066,0.641-3.142,0.533h-7.883v-5.752h7.776
		c1.036-0.094,2.079,0.071,3.036,0.479c0.881,0.463,1.404,1.404,1.332,2.397c0.058,1.032-0.453,2.012-1.332,2.557 M159.636,100.902
		c1.215,0.449,2.283,1.223,3.089,2.237c0.89,1.45,1.265,3.157,1.065,4.847v5.326h-6.338v-3.302c0.308-1.839-0.051-3.728-1.012-5.326
		c-0.905-0.959-2.29-1.172-4.634-1.172h-6.818v9.694h-6.338V86.575h14.594c2.606-0.23,5.228,0.21,7.616,1.278
		c2.14,1.145,3.411,3.437,3.249,5.859c0.094,3.04-1.68,5.829-4.474,7.031 M167.678,86.682h21.305v5.326H173.91v4.794h14.487v5.326
		H173.91v5.326h15.073v5.326h-21.305V86.682z M125.069,98.932h-8.362v-6.764h8.362c2.29,0,3.888,0.905,3.888,3.249
		c0,2.344-1.545,3.515-3.941,3.515 M110.475,110.809l-9.694-10.652l9.694-10.652V110.809z M85.389,107.667H69.73v-5.326h13.901
		v-5.326H69.73v-4.794h15.978l6.871,7.723L85.389,107.667z M135.721,95.363c0,7.35-5.326,8.895-11.025,8.895h-7.989v8.895h-12.303
		l-7.776-8.735l-8.096,8.788H63.445V86.575h25.459l7.829,8.682l8.043-8.682h20.293c5.06,0,10.652,1.385,10.652,8.735"/>
</g>
<path display="none" fill="#FFFFFF" d="M34.407,143.989c0,2.014-1.633,3.647-3.647,3.647s-3.647-1.633-3.647-3.647
	c0-2.014,1.633-3.647,3.647-3.647c0,0,0,0,0,0c1.989-0.025,3.622,1.568,3.647,3.557C34.408,143.93,34.408,143.959,34.407,143.989
	 M35.074,143.989c0-2.456-1.991-4.447-4.447-4.447s-4.447,1.991-4.447,4.447c0,2.456,1.991,4.447,4.447,4.447
	S35.074,146.445,35.074,143.989 M31.783,143.1c0-0.489-0.356-0.534-0.578-0.534h-1.201v1.112h1.112c0.4,0,0.712,0,0.712-0.578
	 M32.673,145.946h-0.756c-0.045-0.339-0.045-0.683,0-1.023c0-0.311,0-0.578-0.578-0.578h-1.156v1.645h-0.712v-4.002h1.868
	c0.623,0,1.334,0.222,1.334,1.112c0.016,0.353-0.153,0.69-0.445,0.889c0.236,0.157,0.372,0.428,0.356,0.712v0.712
	c-0.056,0.096-0.056,0.215,0,0.311L32.673,145.946z"/>
</svg>
