<?xml version="1.0" encoding="utf-8"?>
<svg version="1.1" id="Layer_1" xmlns="http://www.w3.org/2000/svg" xmlns:xlink="http://www.w3.org/1999/xlink" x="0px" y="0px"
	 viewBox="0 0 247.3 158.7" style="enable-background:new 0 0 247.3 158.7;" xml:space="preserve">
<style type="text/css">
	.st0{fill:#231F20;}
	.st1{fill:#FFFFFF;}
</style>
<g>
	<path id="XMLID_96_" class="st0" d="M225.4,0.1H22.2c-0.8,0-1.7,0-2.5,0c-0.7,0-1.4,0-2.1,0c-1.6,0-3.1,0.1-4.7,0.4
		c-1.6,0.3-3,0.7-4.4,1.5C7,2.7,5.7,3.6,4.6,4.8c-1.1,1.1-2,2.4-2.7,3.8c-0.7,1.4-1.2,2.9-1.5,4.4C0.2,14.5,0.1,16,0,17.6
		c0,0.7,0,1.4,0,2.1c0,0.8,0,1.7,0,2.5v114.1c0,0.8,0,1.7,0,2.5c0,0.7,0,1.4,0,2.1c0,1.6,0.1,3.1,0.4,4.7c0.3,1.6,0.7,3,1.5,4.4
		c0.7,1.4,1.6,2.7,2.7,3.8c1.1,1.1,2.4,2,3.8,2.7c1.4,0.7,2.9,1.2,4.4,1.5c1.5,0.3,3.1,0.4,4.7,0.4c0.7,0,1.4,0,2.1,0
		c0.8,0,1.7,0,2.5,0h203.2c0.8,0,1.7,0,2.5,0c0.7,0,1.4,0,2.1,0c1.6,0,3.1-0.1,4.7-0.4c1.6-0.3,3-0.7,4.4-1.5
		c1.4-0.7,2.7-1.6,3.8-2.7c1.1-1.1,2-2.4,2.7-3.8c0.7-1.4,1.2-2.9,1.5-4.4c0.3-1.5,0.4-3.1,0.4-4.7c0-0.7,0-1.4,0-2.1
		c0-0.8,0-1.7,0-2.5V22.3c0-0.8,0-1.7,0-2.5c0-0.7,0-1.4,0-2.1c0-1.6-0.1-3.1-0.4-4.7c-0.3-1.6-0.7-3-1.5-4.4
		c-0.7-1.4-1.6-2.7-2.7-3.8c-1.1-1.1-2.4-2-3.8-2.7c-1.4-0.7-2.9-1.2-4.4-1.5c-1.5-0.3-3.1-0.4-4.7-0.4c-0.7,0-1.4,0-2.1,0
		C227,0.1,226.2,0.1,225.4,0.1L225.4,0.1z"/>
	<path id="XMLID_227_" class="st1" d="M225.4,5.4l2.5,0c0.7,0,1.4,0,2,0c1.2,0,2.6,0.1,3.9,0.3c1.1,0.2,2.1,0.5,3,1
		c0.9,0.5,1.7,1,2.4,1.8c0.7,0.7,1.3,1.5,1.8,2.4c0.5,0.9,0.8,1.8,1,3c0.2,1.3,0.3,2.7,0.3,3.9c0,0.7,0,1.3,0,2c0,0.8,0,1.7,0,2.5
		v114.1c0,0.8,0,1.7,0,2.5c0,0.7,0,1.3,0,2c0,1.2-0.1,2.6-0.3,3.9c-0.2,1.1-0.5,2.1-1,3c-0.5,0.9-1.1,1.7-1.8,2.4
		c-0.7,0.7-1.5,1.3-2.4,1.8c-0.9,0.5-1.8,0.8-2.9,1c-1.3,0.2-2.8,0.3-3.8,0.3c-0.7,0-1.4,0-2.1,0c-0.8,0-1.7,0-2.5,0H22.2
		c0,0,0,0,0,0c-0.8,0-1.6,0-2.5,0c-0.7,0-1.4,0-2,0c-1.1,0-2.6-0.1-3.9-0.3c-1.1-0.2-2.1-0.5-3-1c-0.9-0.5-1.7-1-2.4-1.8
		c-0.7-0.7-1.3-1.5-1.8-2.4c-0.5-0.9-0.8-1.8-1-3c-0.2-1.3-0.3-2.7-0.3-3.9c0-0.7,0-1.4,0-2l0-2l0-0.5V22.3l0-0.5l0-2
		c0-0.7,0-1.4,0-2c0-1.2,0.1-2.6,0.3-3.9c0.2-1.1,0.5-2.1,1-3c0.5-0.9,1-1.7,1.8-2.4c0.7-0.7,1.5-1.3,2.4-1.8c0.9-0.5,1.8-0.8,3-1
		c1.3-0.2,2.7-0.3,3.9-0.3c0.7,0,1.4,0,2,0l2.5,0H225.4"/>
	<g id="XMLID_34_">
		<g id="XMLID_44_">
			<path id="XMLID_46_" class="st0" d="M65.1,53.6c2.1-2.6,3.5-6.1,3.1-9.7c-3.1,0.2-6.8,2-9,4.7c-1.9,2.2-3.7,5.9-3.2,9.4
				C59.4,58.2,62.9,56.2,65.1,53.6"/>
			<path id="XMLID_45_" class="st0" d="M68.2,58.5c-5-0.3-9.3,2.8-11.7,2.8c-2.4,0-6.1-2.7-10-2.6c-5.2,0.1-9.9,3-12.6,7.6
				c-5.4,9.3-1.4,23,3.8,30.6c2.5,3.7,5.6,7.9,9.6,7.7c3.8-0.1,5.3-2.5,9.9-2.5c4.6,0,6,2.5,10,2.4c4.2-0.1,6.8-3.7,9.3-7.5
				c2.9-4.3,4.1-8.4,4.2-8.6c-0.1-0.1-8.1-3.1-8.1-12.3c-0.1-7.7,6.3-11.4,6.6-11.6C75.7,59.3,70.1,58.7,68.2,58.5"/>
		</g>
		<g id="XMLID_35_">
			<path id="XMLID_41_" class="st0" d="M118.1,48.1c10.9,0,18.5,7.5,18.5,18.4c0,11-7.7,18.5-18.7,18.5h-12.1v19.2h-8.7V48.1H118.1z
				 M105.8,77.7h10c7.6,0,11.9-4.1,11.9-11.2c0-7.1-4.3-11.1-11.9-11.1h-10V77.7z"/>
			<path id="XMLID_38_" class="st0" d="M138.7,92.6c0-7.2,5.5-11.3,15.6-11.9l10.8-0.7v-3.1c0-4.5-3-7-8.3-7c-4.4,0-7.6,2.3-8.2,5.7
				h-7.9c0.2-7.3,7.1-12.6,16.3-12.6c10,0,16.4,5.2,16.4,13.3v27.9h-8v-6.7h-0.2c-2.3,4.4-7.3,7.2-12.8,7.2
				C144.4,104.6,138.7,99.8,138.7,92.6z M165.1,89v-3.1l-9.7,0.6c-5.4,0.3-8.3,2.4-8.3,5.9c0,3.4,3,5.6,7.6,5.6
				C160.7,98,165.1,94.2,165.1,89z"/>
			<path id="XMLID_36_" class="st0" d="M180.9,119.2v-6.7c0.5,0.1,1.9,0.2,2.6,0.2c3.8,0,6-1.6,7.3-5.8l0.8-2.5l-14.7-40.8h9.1
				l10.3,33.1h0.2l10.3-33.1h8.9l-15.3,42.9c-3.5,9.8-7.5,13.1-16,13.1C183.6,119.5,181.5,119.4,180.9,119.2z"/>
		</g>
	</g>
</g>
</svg>
