<?xml version="1.0" encoding="utf-8"?>
<svg version="1.0" id="Layer_1" xmlns="http://www.w3.org/2000/svg" xmlns:xlink="http://www.w3.org/1999/xlink" x="0px" y="0px"
	 viewBox="0 0 251.15 158.68" enable-background="new 0 0 251.15 158.68" xml:space="preserve">
<path class="CardShape" id="Card_Shape" fill="#010101" d="M242.646,158.68H8.504c-4.677,0-8.504-3.827-8.504-8.504V8.504C0,3.827,3.827,0,8.504,0
	h234.142c4.677,0,8.504,3.827,8.504,8.504v141.672C251.15,154.853,247.323,158.68,242.646,158.68z"/>
<g id="Mark">
	<path id="XMLID_567_" fill="#FFFFFF" d="M70.489,145.45v-8.972c0-3.368-2.027-5.604-5.485-5.634
		c-1.818-0.03-3.696,0.536-5.008,2.534c-0.984-1.58-2.534-2.534-4.71-2.534c-1.52,0-3.13,0.417-4.292,2.087v-1.729h-2.862v14.248
		h2.892v-8.168c0-2.474,1.49-3.786,3.607-3.786c2.057,0,3.219,1.341,3.219,3.756v8.197h2.892v-8.168c0-2.474,1.55-3.786,3.607-3.786
		c2.116,0,3.249,1.341,3.249,3.756v8.197H70.489z M116.93,131.201h-5.187v-4.322h-2.891v4.322h-3.011v2.593h3.011v6.737
		c0,3.309,1.163,5.276,4.829,5.276c1.341,0,2.892-0.417,3.875-1.103l-0.895-2.534c-0.924,0.537-1.937,0.805-2.742,0.805
		c-1.55,0-2.176-0.954-2.176-2.385v-6.796h5.187V131.201z M143.37,130.844c-1.788,0-3.07,0.835-3.875,2.087v-1.729h-2.832v14.248
		h2.862v-8.018c0-2.355,1.133-3.875,3.16-3.875c0.626,0,1.282,0.089,1.938,0.358l0.954-2.683
		C144.89,130.963,143.996,130.844,143.37,130.844L143.37,130.844z M103.397,132.334c-1.49-0.984-3.547-1.49-5.813-1.49
		c-3.607,0-5.813,1.699-5.813,4.531c0,2.325,1.61,3.726,4.799,4.173l1.461,0.209c1.699,0.238,2.623,0.835,2.623,1.639
		c0,1.103-1.252,1.818-3.368,1.818c-2.235,0-3.696-0.686-4.739-1.49l-1.461,2.236c2.116,1.55,4.65,1.848,6.17,1.848
		c4.113,0,6.379-1.908,6.379-4.62c0-2.504-1.729-3.786-4.859-4.233l-1.461-0.209c-1.341-0.179-2.534-0.596-2.534-1.55
		c0-1.043,1.133-1.759,2.832-1.759c1.818,0,3.577,0.686,4.441,1.222L103.397,132.334z M146.619,138.326
		c0,4.322,2.891,7.482,7.482,7.482c2.146,0,3.577-0.477,5.127-1.699l-1.49-2.236c-1.163,0.835-2.385,1.282-3.726,1.282
		c-2.474-0.03-4.412-1.967-4.412-4.829c0-2.862,1.938-4.799,4.412-4.829c1.342,0,2.564,0.447,3.726,1.282l1.49-2.236
		c-1.55-1.222-2.981-1.699-5.127-1.699C149.511,130.844,146.619,134.003,146.619,138.326L146.619,138.326z M126.588,130.844
		c-4.173,0-7.035,3.011-7.035,7.452c0,4.531,2.981,7.512,7.244,7.512c2.146,0,4.113-0.537,5.842-1.997l-1.52-2.116
		c-1.192,0.954-2.712,1.49-4.143,1.49c-1.997,0-4.024-1.133-4.382-3.696h10.642c0.03-0.387,0.06-0.775,0.06-1.192
		C133.265,133.854,130.582,130.844,126.588,130.844L126.588,130.844z M126.528,133.497c2.116,0,3.547,1.371,3.756,3.607h-7.691
		C122.862,135.017,124.233,133.497,126.528,133.497L126.528,133.497z M87.956,138.326v-7.124h-2.862v1.729
		c-0.984-1.282-2.593-2.087-4.62-2.087c-3.994,0-7.035,3.13-7.035,7.482s3.041,7.482,7.035,7.482c2.027,0,3.636-0.805,4.62-2.086
		v1.729h2.862V138.326z M76.42,138.326c0-2.683,1.699-4.829,4.441-4.829c2.623,0,4.352,2.057,4.352,4.829
		c0,2.772-1.729,4.829-4.352,4.829C78.12,143.154,76.42,141.008,76.42,138.326L76.42,138.326z M186.414,130.844
		c-1.788,0-3.07,0.835-3.875,2.087v-1.729h-2.832v14.248h2.862v-8.018c0-2.355,1.133-3.875,3.16-3.875
		c0.626,0,1.282,0.089,1.938,0.358l0.954-2.683C187.934,130.963,187.039,130.844,186.414,130.844L186.414,130.844z M209.373,143.383
		c0.199,0,0.385,0.037,0.56,0.111c0.174,0.074,0.327,0.175,0.458,0.303c0.13,0.128,0.233,0.278,0.308,0.451
		c0.075,0.172,0.113,0.355,0.113,0.549c0,0.194-0.038,0.377-0.113,0.548c-0.075,0.171-0.178,0.321-0.308,0.449
		c-0.131,0.128-0.283,0.23-0.458,0.305c-0.175,0.075-0.361,0.113-0.56,0.113c-0.203,0-0.393-0.038-0.57-0.113
		c-0.177-0.075-0.33-0.177-0.459-0.305c-0.13-0.128-0.232-0.278-0.307-0.449c-0.075-0.171-0.112-0.354-0.112-0.548
		c0-0.194,0.037-0.377,0.112-0.549c0.075-0.172,0.177-0.322,0.307-0.451c0.129-0.129,0.282-0.23,0.459-0.303
		C208.98,143.42,209.17,143.383,209.373,143.383z M209.373,145.9c0.153,0,0.295-0.029,0.427-0.087
		c0.132-0.058,0.247-0.137,0.346-0.236c0.1-0.099,0.177-0.216,0.234-0.35s0.085-0.277,0.085-0.43s-0.028-0.296-0.085-0.43
		c-0.057-0.134-0.134-0.251-0.234-0.35c-0.099-0.1-0.215-0.177-0.346-0.234c-0.132-0.057-0.274-0.085-0.427-0.085
		c-0.155,0-0.3,0.028-0.435,0.085c-0.135,0.057-0.253,0.134-0.352,0.234c-0.099,0.099-0.178,0.216-0.234,0.35
		c-0.057,0.134-0.085,0.277-0.085,0.43s0.028,0.296,0.085,0.43c0.056,0.134,0.135,0.251,0.234,0.35
		c0.099,0.099,0.217,0.178,0.352,0.236C209.073,145.871,209.218,145.9,209.373,145.9z M209.456,144.136
		c0.169,0,0.299,0.037,0.39,0.113c0.091,0.075,0.137,0.177,0.137,0.307c0,0.109-0.036,0.198-0.109,0.269
		c-0.073,0.07-0.176,0.114-0.31,0.13l0.43,0.496h-0.336l-0.399-0.492h-0.128v0.492h-0.281v-1.314H209.456z M209.13,144.382v0.35
		h0.322c0.074,0,0.133-0.014,0.177-0.043c0.044-0.029,0.066-0.073,0.066-0.133c0-0.058-0.022-0.101-0.066-0.13
		c-0.044-0.029-0.103-0.043-0.177-0.043H209.13z M175.444,138.326v-7.124h-2.862v1.729c-0.984-1.282-2.593-2.087-4.62-2.087
		c-3.994,0-7.035,3.13-7.035,7.482s3.04,7.482,7.035,7.482c2.027,0,3.637-0.805,4.62-2.086v1.729h2.862V138.326z M163.908,138.326
		c0-2.683,1.699-4.829,4.441-4.829c2.623,0,4.352,2.057,4.352,4.829c0,2.772-1.729,4.829-4.352,4.829
		C165.607,143.154,163.908,141.008,163.908,138.326L163.908,138.326z M204.209,138.326v-12.847h-2.862v7.452
		c-0.984-1.282-2.593-2.087-4.621-2.087c-3.994,0-7.035,3.13-7.035,7.482s3.041,7.482,7.035,7.482c2.027,0,3.637-0.805,4.621-2.086
		v1.729h2.862V138.326z M192.673,138.326c0-2.683,1.699-4.829,4.442-4.829c2.623,0,4.352,2.057,4.352,4.829
		c0,2.772-1.729,4.829-4.352,4.829C194.372,143.154,192.673,141.008,192.673,138.326z"/>
	<g id="XMLID_328_">
		<rect x="100.068" y="22.773" fill="#F16122" width="51.589" height="84.266"/>
		<path id="XMLID_330_" fill="#E91D25" d="M105.394,64.906c0-17.095,8.004-32.32,20.469-42.133
			c-9.116-7.176-20.618-11.458-33.119-11.458c-29.595,0-53.587,23.994-53.587,53.591s23.992,53.591,53.587,53.591
			c12.501,0,24.003-4.281,33.119-11.458C113.398,97.227,105.394,82.002,105.394,64.906z"/>
		<path fill="#F79E1D" d="M207.456,98.114V96.39h0.696v-0.352h-1.772v0.352h0.696v1.725H207.456z M210.895,98.114v-2.08h-0.543
			l-0.625,1.43l-0.625-1.43h-0.543v2.08h0.384v-1.569l0.586,1.353h0.397l0.586-1.356v1.572H210.895z"/>
		<path fill="#F79E1D" d="M212.568,64.906c0,29.597-23.992,53.591-53.587,53.591c-12.501,0-24.003-4.281-33.119-11.458
			c12.465-9.813,20.468-25.038,20.468-42.133c0-17.095-8.004-32.32-20.468-42.133c9.116-7.176,20.617-11.458,33.119-11.458
			C188.577,11.315,212.568,35.309,212.568,64.906z"/>
	</g>
</g>
</svg>
