<?xml version="1.0" encoding="utf-8"?>
<svg version="1.1" id="Layer_1" xmlns="http://www.w3.org/2000/svg" xmlns:xlink="http://www.w3.org/1999/xlink" x="0px" y="0px"
	 viewBox="0 0 251.1 134.9" style="enable-background:new 0 0 251.1 134.9;" xml:space="preserve">
<style type="text/css">
	.st0{opacity:0.5;fill:#7F7F7F;}
	.st1{fill:#7F7F7F;}
	.st2{fill:#FFFFFF;}
	.st3{clip-path:url(#SVGID_2_);fill:#FBBC05;}
	.st4{clip-path:url(#SVGID_4_);fill:#EA4335;}
	.st5{clip-path:url(#SVGID_6_);fill:#34A853;}
	.st6{clip-path:url(#SVGID_8_);fill:#4285F4;}
	.st7{fill:#757575;}
</style>
<g id="Card">
	<path class="st0" d="M4.3,135.4h242.6c2.3,0,4.3-1.9,4.3-4.3V4.2c0-2.3-1.9-4.3-4.3-4.3H4.3C1.9-0.1,0,1.8,0,4.2v127
		C0,133.5,1.9,135.4,4.3,135.4z"/>
	<path class="st1" d="M4.5,1.5H247c1.6,0,2.8,1.3,2.8,2.8v126.7c0,1.6-1.3,2.8-2.8,2.8H4.5c-1.6,0-2.8-1.3-2.8-2.8V4.3
		C1.7,2.8,2.9,1.5,4.5,1.5z"/>
	<path class="st2" d="M246.6,132.3H4.7c-0.8,0-1.4-0.6-1.4-1.4V4.5c0-0.8,0.6-1.4,1.4-1.4h241.9c0.8,0,1.4,0.6,1.4,1.4v126.3
		C248,131.7,247.4,132.3,246.6,132.3z"/>
</g>
<g id="Mark">
	<g id="G_1_">
		<g>
			<defs>
				<path id="SVGID_1_" d="M102.4,63.9H74.3v11.7h16.2C89,83,82.7,87.3,74.3,87.3c-9.9,0-17.8-8-17.8-17.8s8-17.8,17.8-17.8
					c4.3,0,8.1,1.5,11.1,4l8.8-8.8c-5.3-4.7-12.2-7.5-19.9-7.5c-16.7,0-30.2,13.4-30.2,30.2s13.4,30.2,30.2,30.2
					c15.1,0,28.8-11,28.8-30.2C103.1,67.6,102.8,65.7,102.4,63.9z"/>
			</defs>
			<clipPath id="SVGID_2_">
				<use xlink:href="#SVGID_1_"  style="overflow:visible;"/>
			</clipPath>
			<path class="st3" d="M41.4,87.3V51.6l23.3,17.8L41.4,87.3z"/>
		</g>
		<g>
			<defs>
				<path id="SVGID_3_" d="M102.4,63.9H74.3v11.7h16.2C89,83,82.7,87.3,74.3,87.3c-9.9,0-17.8-8-17.8-17.8s8-17.8,17.8-17.8
					c4.3,0,8.1,1.5,11.1,4l8.8-8.8c-5.3-4.7-12.2-7.5-19.9-7.5c-16.7,0-30.2,13.4-30.2,30.2s13.4,30.2,30.2,30.2
					c15.1,0,28.8-11,28.8-30.2C103.1,67.6,102.8,65.7,102.4,63.9z"/>
			</defs>
			<clipPath id="SVGID_4_">
				<use xlink:href="#SVGID_3_"  style="overflow:visible;"/>
			</clipPath>
			<path class="st4" d="M41.4,51.6l23.3,17.8l9.6-8.4l32.9-5.3V36.5H41.4V51.6z"/>
		</g>
		<g>
			<defs>
				<path id="SVGID_5_" d="M102.4,63.9H74.3v11.7h16.2C89,83,82.7,87.3,74.3,87.3c-9.9,0-17.8-8-17.8-17.8s8-17.8,17.8-17.8
					c4.3,0,8.1,1.5,11.1,4l8.8-8.8c-5.3-4.7-12.2-7.5-19.9-7.5c-16.7,0-30.2,13.4-30.2,30.2s13.4,30.2,30.2,30.2
					c15.1,0,28.8-11,28.8-30.2C103.1,67.6,102.8,65.7,102.4,63.9z"/>
			</defs>
			<clipPath id="SVGID_6_">
				<use xlink:href="#SVGID_5_"  style="overflow:visible;"/>
			</clipPath>
			<path class="st5" d="M41.4,87.3l41.1-31.5l10.8,1.4l13.8-20.6v65.8H41.4V87.3z"/>
		</g>
		<g>
			<defs>
				<path id="SVGID_7_" d="M102.4,63.9H74.3v11.7h16.2C89,83,82.7,87.3,74.3,87.3c-9.9,0-17.8-8-17.8-17.8s8-17.8,17.8-17.8
					c4.3,0,8.1,1.5,11.1,4l8.8-8.8c-5.3-4.7-12.2-7.5-19.9-7.5c-16.7,0-30.2,13.4-30.2,30.2s13.4,30.2,30.2,30.2
					c15.1,0,28.8-11,28.8-30.2C103.1,67.6,102.8,65.7,102.4,63.9z"/>
			</defs>
			<clipPath id="SVGID_8_">
				<use xlink:href="#SVGID_7_"  style="overflow:visible;"/>
			</clipPath>
			<path class="st6" d="M107.2,102.3L64.7,69.4l-5.5-4.1l48-13.7V102.3z"/>
		</g>
	</g>
	<g id="Pay">
		<path class="st7" d="M136.8,73.3v12.5h-5.5V52.9h12.9c3.6,0,6.5,0.9,8.5,2.8c2.1,1.9,3.1,4.3,3.1,7.4c0,3.1-1,5.6-3.1,7.4
			c-2.1,1.9-4.9,2.8-8.5,2.8H136.8z M136.8,68.9h7.4c2,0,3.6-0.5,4.6-1.6c1-1.1,1.5-2.5,1.5-4.1c0-1.7-0.5-3.1-1.5-4.2
			c-1-1.1-2.6-1.7-4.6-1.7h-7.4V68.9z"/>
		<path class="st7" d="M175.1,85.8c-0.2-0.6-0.4-1.2-0.5-1.8c-0.1-0.6-0.2-1.2-0.3-1.8c-0.8,1.1-1.7,2.1-3,2.9
			c-1.2,0.8-2.6,1.2-4.1,1.2c-2.5,0-4.5-0.7-5.9-2s-2-3.1-2-5.4c0-2.4,0.9-4.2,2.8-5.5c1.9-1.3,4.5-2,7.9-2h4.3v-2.2
			c0-1.3-0.4-2.3-1.1-3c-0.8-0.7-1.8-1.1-3.2-1.1c-1.3,0-2.2,0.3-3,0.9c-0.7,0.6-1.1,1.4-1.1,2.3h-5.3l0-0.1
			c-0.1-1.9,0.8-3.6,2.6-5.1c1.8-1.5,4.2-2.2,7.2-2.2c2.9,0,5.2,0.7,6.9,2.2c1.8,1.4,2.6,3.5,2.6,6.2v10.9c0,1,0.1,2,0.2,2.9
			s0.4,1.8,0.7,2.7H175.1z M168.3,81.9c1.4,0,2.6-0.3,3.7-1c1.1-0.7,1.8-1.5,2.2-2.4v-3.6h-4.4c-1.6,0-2.9,0.4-3.8,1.2
			s-1.4,1.7-1.4,2.8c0,0.9,0.3,1.7,0.9,2.2C166.3,81.6,167.2,81.9,168.3,81.9z"/>
		<path class="st7" d="M193.3,76l0.5,2.4h0.1l5.4-17.1h6l-10.1,28.2c-0.6,1.7-1.6,3.2-2.7,4.4s-2.8,1.8-5,1.8c-0.5,0-0.9,0-1.5-0.1
			c-0.5-0.1-1-0.2-1.5-0.3l0.6-4.3c0.2,0,0.5,0,0.8,0.1s0.6,0,0.8,0c1,0,1.8-0.3,2.4-1s1.1-1.5,1.5-2.4l0.9-2.2l-8.9-24.2h6
			L193.3,76z"/>
	</g>
</g>
</svg>
