<svg id="Layer_1" data-name="Layer 1" xmlns="http://www.w3.org/2000/svg" xmlns:xlink="http://www.w3.org/1999/xlink" viewBox="0 0 251.2 135.5">
  <defs>
    <clipPath id="clip-path" transform="translate(0 0.1)">
      <path d="M102.4,63.9H74.3V75.6H90.5C89,83,82.7,87.3,74.3,87.3a17.8,17.8,0,0,1,0-35.6,17.13,17.13,0,0,1,11.1,4l8.8-8.8a29.72,29.72,0,0,0-19.9-7.5,30.2,30.2,0,1,0,0,60.4c15.1,0,28.8-11,28.8-30.2A26.16,26.16,0,0,0,102.4,63.9Z" style="fill: none"/>
    </clipPath>
  </defs>
  <title>pay-with-google2</title>
  <g id="Card">
    <path d="M4.3,135.4H246.9a4.33,4.33,0,0,0,4.3-4.3V4.2a4.33,4.33,0,0,0-4.3-4.3H4.3A4.27,4.27,0,0,0,0,4.2v127A4.25,4.25,0,0,0,4.3,135.4Z" transform="translate(0 0.1)" style="fill: #7f7f7f;opacity: 0.5;isolation: isolate"/>
    <path d="M4.5,1.5H247a2.8,2.8,0,0,1,2.8,2.8V131a2.8,2.8,0,0,1-2.8,2.8H4.5A2.8,2.8,0,0,1,1.7,131V4.3A2.8,2.8,0,0,1,4.5,1.5Z" transform="translate(0 0.1)" style="fill: #7f7f7f"/>
    <path d="M246.6,132.3H4.7a1.37,1.37,0,0,1-1.4-1.4V4.5A1.37,1.37,0,0,1,4.7,3.1H246.6A1.37,1.37,0,0,1,248,4.5V130.8A1.39,1.39,0,0,1,246.6,132.3Z" transform="translate(0 0.1)" style="fill: #fff"/>
  </g>
  <g id="Mark">
    <g id="G">
      <g style="clip-path: url(#clip-path)">
        <path d="M41.4,87.3V51.6L64.7,69.4Z" transform="translate(0 0.1)" style="fill: #fbbc05"/>
      </g>
      <g style="clip-path: url(#clip-path)">
        <path d="M41.4,51.6,64.7,69.4,74.3,61l32.9-5.3V36.5H41.4Z" transform="translate(0 0.1)" style="fill: #ea4335"/>
      </g>
      <g style="clip-path: url(#clip-path)">
        <path d="M41.4,87.3,82.5,55.8l10.8,1.4,13.8-20.6v65.8H41.4Z" transform="translate(0 0.1)" style="fill: #34a853"/>
      </g>
      <g style="clip-path: url(#clip-path)">
        <path d="M107.2,102.3,64.7,69.4l-5.5-4.1,48-13.7Z" transform="translate(0 0.1)" style="fill: #4285f4"/>
      </g>
    </g>
    <g id="Pay">
      <path d="M136.8,73.3V85.8h-5.5V52.9h12.9c3.6,0,6.5.9,8.5,2.8a9.38,9.38,0,0,1,3.1,7.4,9.24,9.24,0,0,1-3.1,7.4c-2.1,1.9-4.9,2.8-8.5,2.8Zm0-4.4h7.4a6,6,0,0,0,4.6-1.6,5.92,5.92,0,0,0,1.5-4.1,5.53,5.53,0,0,0-6.1-5.9h-7.4Z" transform="translate(0 0.1)" style="fill: #757575"/>
      <path d="M175.1,85.8a12.09,12.09,0,0,1-.5-1.8l-.3-1.8a10.4,10.4,0,0,1-3,2.9,7.3,7.3,0,0,1-4.1,1.2,8.42,8.42,0,0,1-5.9-2,7,7,0,0,1-2-5.4,6.2,6.2,0,0,1,2.8-5.5,13.76,13.76,0,0,1,7.9-2h4.3V69.2a4.08,4.08,0,0,0-1.1-3,4.59,4.59,0,0,0-3.2-1.1,4.66,4.66,0,0,0-3,.9,3,3,0,0,0-1.1,2.3h-5.3v-.1a6.16,6.16,0,0,1,2.6-5.1,10.87,10.87,0,0,1,7.2-2.2,10,10,0,0,1,6.9,2.2c1.8,1.4,2.6,3.5,2.6,6.2V80.2a26.42,26.42,0,0,0,.2,2.9,13.43,13.43,0,0,0,.7,2.7Zm-6.8-3.9a6.63,6.63,0,0,0,3.7-1,5.52,5.52,0,0,0,2.2-2.4V74.9h-4.4a5.59,5.59,0,0,0-3.8,1.2,3.65,3.65,0,0,0-1.4,2.8,2.79,2.79,0,0,0,.9,2.2A5.12,5.12,0,0,0,168.3,81.9Z" transform="translate(0 0.1)" style="fill: #757575"/>
      <path d="M193.3,76l.5,2.4h.1l5.4-17.1h6L195.2,89.5a13,13,0,0,1-2.7,4.4,6.51,6.51,0,0,1-5,1.8,8.08,8.08,0,0,1-1.5-.1l-1.5-.3.6-4.3a2.49,2.49,0,0,1,.8.1,2.13,2.13,0,0,0,.8,0,3,3,0,0,0,2.4-1,9.74,9.74,0,0,0,1.5-2.4l.9-2.2-8.9-24.2h6Z" transform="translate(0 0.1)" style="fill: #757575"/>
    </g>
  </g>
</svg>
