<?xml version="1.0" encoding="utf-8"?>
<svg version="1.0" id="Layer_1" xmlns="http://www.w3.org/2000/svg" xmlns:xlink="http://www.w3.org/1999/xlink" x="0px" y="0px"
	 viewBox="0 0 251.15 158.68" enable-background="new 0 0 251.15 158.68" xml:space="preserve">
<linearGradient id="Card_Shape_1_" gradientUnits="userSpaceOnUse" x1="0" y1="79.34" x2="251.15" y2="79.34">
	<stop  offset="0" style="stop-color:#251F5E"/>
	<stop  offset="1" style="stop-color:#034EA2"/>
</linearGradient>
<path class="CardShape" id="Card_Shape" fill="url(#Card_Shape_1_)" d="M242.646,158.68H8.504c-4.677,0-8.504-3.827-8.504-8.504V8.504
	C0,3.827,3.827,0,8.504,0h234.142c4.677,0,8.504,3.827,8.504,8.504v141.672C251.15,154.853,247.323,158.68,242.646,158.68z"/>
<path class="Mark" id="Mark" fill="#FFFFFF" d="M99.993,46.224l-27.835,66.403H54L40.302,59.632c-0.83-3.258-1.554-4.456-4.079-5.833
	c-4.131-2.244-10.951-4.343-16.947-5.648l0.405-1.927h29.233c3.723,0,7.073,2.478,7.925,6.766l7.236,38.428l17.871-45.194H99.993z
	 M171.142,90.948c0.076-17.524-24.225-18.496-24.064-26.326c0.053-2.379,2.322-4.914,7.284-5.562
	c2.46-0.318,9.248-0.574,16.943,2.972l3.009-14.087c-4.134-1.495-9.452-2.934-16.068-2.934c-16.983,0-28.931,9.02-29.026,21.949
	c-0.108,9.56,8.534,14.891,15.032,18.074c6.7,3.254,8.945,5.342,8.913,8.25c-0.047,4.455-5.343,6.427-10.274,6.502
	c-8.643,0.135-13.651-2.335-17.644-4.197l-3.118,14.557c4.02,1.84,11.428,3.442,19.098,3.524
	C159.283,113.669,171.089,104.754,171.142,90.948 M215.99,112.627h15.884l-13.878-66.403h-14.653c-3.303,0-6.086,1.915-7.318,4.868
	l-25.777,61.536h18.042l3.582-9.917h22.037L215.99,112.627z M196.814,89.102l9.044-24.937l5.202,24.937H196.814z M124.54,46.224
	l-14.203,66.403H93.158l14.205-66.403H124.54z"/>
</svg>
