<?xml version="1.0" encoding="utf-8"?>
<svg version="1.0" id="Layer_1" xmlns="http://www.w3.org/2000/svg" xmlns:xlink="http://www.w3.org/1999/xlink" x="0px" y="0px"
	 viewBox="0 0 251.15 158.68" enable-background="new 0 0 251.15 158.68" xml:space="preserve">
<g id="Card">
	<defs>
		<path id="Card_Shape" d="M242.646,158.68H8.504c-4.677,0-8.504-3.827-8.504-8.504V8.504C0,3.827,3.827,0,8.504,0h234.142
			c4.677,0,8.504,3.827,8.504,8.504v141.672C251.15,154.853,247.323,158.68,242.646,158.68z"/>
	</defs>
	<clipPath id="Card_Shape_1_">
		<use xlink:href="#Card_Shape"  overflow="visible"/>
	</clipPath>
	<g clip-path="url(#Card_Shape_1_)">
		<rect y="0.741" fill="#FFFFFF" width="251.15" height="159.538"/>
		<rect x="4.183" y="134.357" fill="#F7B600" width="242.781" height="21.766"/>
		<rect x="4.183" y="4.926" fill="#1A1F71" width="242.781" height="21.767"/>
	</g>
</g>
<path id="Mark_1_" fill="#1A1F71" d="M101.363,49.673l-25.079,59.828h-16.36L47.582,61.754c-0.748-2.936-1.4-4.015-3.676-5.256
	c-3.722-2.022-9.867-3.913-15.269-5.089l0.365-1.736h26.338c3.355,0,6.373,2.232,7.14,6.096L69,90.392l16.102-40.719H101.363z
	 M165.467,89.969c0.068-15.789-21.826-16.664-21.681-23.719c0.048-2.144,2.092-4.427,6.563-5.011
	c2.216-0.286,8.332-0.517,15.265,2.677l2.711-12.692c-3.724-1.347-8.516-2.644-14.477-2.644c-15.302,0-26.066,8.127-26.152,19.776
	c-0.098,8.614,7.689,13.416,13.544,16.285c6.036,2.932,8.06,4.813,8.03,7.433c-0.042,4.014-4.814,5.791-9.256,5.858
	c-7.787,0.122-12.299-2.104-15.897-3.781l-2.809,13.116c3.622,1.658,10.297,3.101,17.207,3.175
	C154.782,110.441,165.419,102.408,165.467,89.969 M205.874,109.501h14.312l-12.504-59.828h-13.202c-2.976,0-5.483,1.725-6.594,4.386
	l-23.225,55.443h16.255l3.227-8.935h19.855L205.874,109.501z M188.596,88.305l8.148-22.468l4.687,22.468H188.596z M123.479,49.673
	l-12.797,59.828H95.204l12.798-59.828H123.479z"/>
</svg>
